<svg width="176" height="37" viewBox="0 0 176 37" fill="none" xmlns="http://www.w3.org/2000/svg">
<path d="M19.9268 20.3134C21.7179 20.7178 23.1334 21.6134 24.1734 23C25.2423 24.3578 25.7768 25.9178 25.7768 27.68C25.7768 30.28 24.8812 32.3167 23.0901 33.79C21.299 35.2634 18.7856 36 15.5501 36H0.426758V5.45002H15.0734C18.1934 5.45002 20.6345 6.14335 22.3968 7.53002C24.1879 8.91668 25.0834 10.8667 25.0834 13.38C25.0834 15.1711 24.6068 16.6734 23.6534 17.8867C22.729 19.0711 21.4868 19.88 19.9268 20.3134ZM8.92009 17.5834H13.2101C15.3479 17.5834 16.4168 16.7022 16.4168 14.94C16.4168 13.12 15.3479 12.21 13.2101 12.21H8.92009V17.5834ZM13.8601 29.1534C15.9979 29.1534 17.0668 28.2578 17.0668 26.4667C17.0668 25.5422 16.7779 24.8345 16.2001 24.3434C15.6512 23.8522 14.8568 23.6067 13.8168 23.6067H8.92009V29.1534H13.8601Z" fill="#1F2665"/>
<path d="M37.9924 3.93335V36H29.499V3.93335H37.9924Z" fill="#1F2665"/>
<path d="M47.1191 9.43668C45.6169 9.43668 44.4036 9.03224 43.4791 8.22335C42.5836 7.38557 42.1358 6.34557 42.1358 5.10335C42.1358 3.83224 42.5836 2.7778 43.4791 1.94002C44.4036 1.10224 45.6169 0.68335 47.1191 0.68335C48.5924 0.68335 49.7769 1.10224 50.6724 1.94002C51.5969 2.7778 52.0591 3.83224 52.0591 5.10335C52.0591 6.34557 51.5969 7.38557 50.6724 8.22335C49.7769 9.03224 48.5924 9.43668 47.1191 9.43668ZM51.3224 11.69V36H42.8291V11.69H51.3224Z" fill="#1F2665"/>
<path d="M54.7725 23.8234C54.7725 21.31 55.2925 19.1145 56.3325 17.2367C57.3725 15.3589 58.817 13.9145 60.6659 12.9034C62.5436 11.8922 64.6814 11.3867 67.0792 11.3867C70.1703 11.3867 72.7703 12.2389 74.8792 13.9434C76.9881 15.6189 78.3459 17.9734 78.9525 21.0067H69.9392C69.4192 19.4178 68.4081 18.6234 66.9059 18.6234C65.837 18.6234 64.9847 19.0711 64.3492 19.9667C63.7425 20.8334 63.4392 22.1189 63.4392 23.8234C63.4392 25.5278 63.7425 26.8278 64.3492 27.7234C64.9847 28.6189 65.837 29.0667 66.9059 29.0667C68.437 29.0667 69.4481 28.2722 69.9392 26.6834H78.9525C78.3459 29.6878 76.9881 32.0422 74.8792 33.7467C72.7703 35.4511 70.1703 36.3034 67.0792 36.3034C64.6814 36.3034 62.5436 35.7978 60.6659 34.7867C58.817 33.7756 57.3725 32.3311 56.3325 30.4534C55.2925 28.5756 54.7725 26.3656 54.7725 23.8234Z" fill="#1F2665"/>
<path d="M93.7908 36.3034C91.3641 36.3034 89.183 35.7978 87.2475 34.7867C85.3408 33.7756 83.8386 32.3311 82.7408 30.4534C81.643 28.5756 81.0941 26.3656 81.0941 23.8234C81.0941 21.31 81.643 19.1145 82.7408 17.2367C83.8675 15.3589 85.3841 13.9145 87.2908 12.9034C89.2264 11.8922 91.4075 11.3867 93.8341 11.3867C96.2608 11.3867 98.4275 11.8922 100.334 12.9034C102.27 13.9145 103.786 15.3589 104.884 17.2367C106.011 19.1145 106.574 21.31 106.574 23.8234C106.574 26.3367 106.011 28.5467 104.884 30.4534C103.786 32.3311 102.27 33.7756 100.334 34.7867C98.3986 35.7978 96.2175 36.3034 93.7908 36.3034ZM93.7908 28.9367C94.9752 28.9367 95.9575 28.5034 96.7375 27.6367C97.5464 26.7411 97.9508 25.47 97.9508 23.8234C97.9508 22.1767 97.5464 20.92 96.7375 20.0534C95.9575 19.1867 94.9897 18.7534 93.8341 18.7534C92.6786 18.7534 91.7108 19.1867 90.9308 20.0534C90.1508 20.92 89.7608 22.1767 89.7608 23.8234C89.7608 25.4989 90.1364 26.77 90.8875 27.6367C91.6386 28.5034 92.6064 28.9367 93.7908 28.9367Z" fill="#1F2665"/>
<path d="M108.643 23.8234C108.643 21.31 109.091 19.1145 109.986 17.2367C110.911 15.3589 112.167 13.9145 113.756 12.9034C115.345 11.8922 117.107 11.3867 119.043 11.3867C120.603 11.3867 121.99 11.7189 123.203 12.3834C124.445 13.0189 125.413 13.9 126.106 15.0267V3.93335H134.643V36H126.106V32.62C125.442 33.7467 124.503 34.6422 123.29 35.3067C122.076 35.9711 120.646 36.3034 119 36.3034C117.064 36.3034 115.302 35.7978 113.713 34.7867C112.153 33.7756 110.911 32.3311 109.986 30.4534C109.091 28.5467 108.643 26.3367 108.643 23.8234ZM126.15 23.8234C126.15 22.2634 125.716 21.0356 124.85 20.14C124.012 19.2445 122.972 18.7967 121.73 18.7967C120.459 18.7967 119.404 19.2445 118.566 20.14C117.729 21.0067 117.31 22.2345 117.31 23.8234C117.31 25.3834 117.729 26.6256 118.566 27.55C119.404 28.4456 120.459 28.8934 121.73 28.8934C122.972 28.8934 124.012 28.4456 124.85 27.55C125.716 26.6545 126.15 25.4122 126.15 23.8234Z" fill="#1F2665"/>
<path d="M162.709 23.5634C162.709 24.2278 162.666 24.8922 162.579 25.5567H146.503C146.589 26.8856 146.951 27.8822 147.586 28.5467C148.251 29.1822 149.088 29.5 150.099 29.5C151.515 29.5 152.526 28.8645 153.133 27.5934H162.189C161.814 29.2689 161.077 30.7711 159.979 32.1C158.911 33.4 157.553 34.4256 155.906 35.1767C154.259 35.9278 152.439 36.3034 150.446 36.3034C148.048 36.3034 145.911 35.7978 144.033 34.7867C142.184 33.7756 140.725 32.3311 139.656 30.4534C138.616 28.5756 138.096 26.3656 138.096 23.8234C138.096 21.2811 138.616 19.0856 139.656 17.2367C140.696 15.3589 142.141 13.9145 143.989 12.9034C145.867 11.8922 148.019 11.3867 150.446 11.3867C152.844 11.3867 154.967 11.8778 156.816 12.86C158.665 13.8422 160.109 15.2578 161.149 17.1067C162.189 18.9267 162.709 21.0789 162.709 23.5634ZM154.043 21.44C154.043 20.4 153.696 19.5911 153.003 19.0134C152.309 18.4067 151.443 18.1034 150.403 18.1034C149.363 18.1034 148.511 18.3922 147.846 18.97C147.182 19.5189 146.748 20.3422 146.546 21.44H154.043Z" fill="#1F2665"/>
<path d="M170.302 36.3467C168.8 36.3467 167.586 35.9422 166.662 35.1334C165.766 34.2956 165.319 33.2411 165.319 31.97C165.319 30.6989 165.766 29.6445 166.662 28.8067C167.586 27.9689 168.8 27.55 170.302 27.55C171.775 27.55 172.96 27.9689 173.855 28.8067C174.78 29.6445 175.242 30.6989 175.242 31.97C175.242 33.2122 174.78 34.2522 173.855 35.09C172.96 35.9278 171.775 36.3467 170.302 36.3467Z" fill="#1F2665"/>
</svg>
