<svg width="167" height="96" viewBox="0 0 167 96" fill="none" xmlns="http://www.w3.org/2000/svg">
<path d="M14.6002 5.304C18.1522 5.304 21.2562 6.008 23.9122 7.416C26.5682 8.824 28.6162 10.808 30.0562 13.368C31.5282 15.896 32.2642 18.824 32.2642 22.152C32.2642 25.448 31.5282 28.376 30.0562 30.936C28.6162 33.496 26.5522 35.48 23.8642 36.888C21.2082 38.296 18.1202 39 14.6002 39H1.9762V5.304H14.6002ZM14.0722 31.896C17.1762 31.896 19.5922 31.048 21.3202 29.352C23.0482 27.656 23.9122 25.256 23.9122 22.152C23.9122 19.048 23.0482 16.632 21.3202 14.904C19.5922 13.176 17.1762 12.312 14.0722 12.312H10.1842V31.896H14.0722Z" fill="#1F2665"/>
<path d="M62.0992 25.176C62.0992 25.944 62.0512 26.744 61.9552 27.576H43.3792C43.5072 29.24 44.0352 30.52 44.9632 31.416C45.9232 32.28 47.0912 32.712 48.4672 32.712C50.5152 32.712 51.9392 31.848 52.7392 30.12H61.4752C61.0272 31.88 60.2112 33.464 59.0272 34.872C57.8752 36.28 56.4192 37.384 54.6592 38.184C52.8992 38.984 50.9312 39.384 48.7552 39.384C46.1312 39.384 43.7952 38.824 41.7472 37.704C39.6992 36.584 38.0992 34.984 36.9472 32.904C35.7952 30.824 35.2192 28.392 35.2192 25.608C35.2192 22.824 35.7792 20.392 36.8992 18.312C38.0512 16.232 39.6512 14.632 41.6992 13.512C43.7472 12.392 46.0992 11.832 48.7552 11.832C51.3472 11.832 53.6512 12.376 55.6672 13.464C57.6832 14.552 59.2512 16.104 60.3712 18.12C61.5232 20.136 62.0992 22.488 62.0992 25.176ZM53.6992 23.016C53.6992 21.608 53.2192 20.488 52.2592 19.656C51.2992 18.824 50.0992 18.408 48.6592 18.408C47.2832 18.408 46.1152 18.808 45.1552 19.608C44.2272 20.408 43.6512 21.544 43.4272 23.016H53.6992Z" fill="#1F2665"/>
<path d="M77.3253 39.384C74.9893 39.384 72.9093 38.984 71.0853 38.184C69.2613 37.384 67.8213 36.296 66.7653 34.92C65.7093 33.512 65.1173 31.944 64.9893 30.216H73.1013C73.1973 31.144 73.6293 31.896 74.3973 32.472C75.1653 33.048 76.1093 33.336 77.2293 33.336C78.2533 33.336 79.0373 33.144 79.5813 32.76C80.1573 32.344 80.4453 31.816 80.4453 31.176C80.4453 30.408 80.0453 29.848 79.2453 29.496C78.4453 29.112 77.1493 28.696 75.3573 28.248C73.4373 27.8 71.8373 27.336 70.5573 26.856C69.2773 26.344 68.1733 25.56 67.2453 24.504C66.3173 23.416 65.8533 21.96 65.8533 20.136C65.8533 18.6 66.2693 17.208 67.1013 15.96C67.9653 14.68 69.2133 13.672 70.8453 12.936C72.5093 12.2 74.4773 11.832 76.7493 11.832C80.1093 11.832 82.7493 12.664 84.6693 14.328C86.6213 15.992 87.7413 18.2 88.0293 20.952H80.4453C80.3173 20.024 79.9013 19.288 79.1973 18.744C78.5253 18.2 77.6293 17.928 76.5093 17.928C75.5493 17.928 74.8133 18.12 74.3013 18.504C73.7893 18.856 73.5333 19.352 73.5333 19.992C73.5333 20.76 73.9333 21.336 74.7333 21.72C75.5653 22.104 76.8453 22.488 78.5733 22.872C80.5573 23.384 82.1733 23.896 83.4213 24.408C84.6693 24.888 85.7573 25.688 86.6853 26.808C87.6453 27.896 88.1413 29.368 88.1733 31.224C88.1733 32.792 87.7253 34.2 86.8293 35.448C85.9653 36.664 84.7013 37.624 83.0373 38.328C81.4053 39.032 79.5013 39.384 77.3253 39.384Z" fill="#1F2665"/>
<path d="M97.3229 9.432C95.8829 9.432 94.6989 9.016 93.7709 8.184C92.8749 7.32 92.4269 6.264 92.4269 5.016C92.4269 3.736 92.8749 2.68 93.7709 1.848C94.6989 0.984002 95.8829 0.552002 97.3229 0.552002C98.7309 0.552002 99.8829 0.984002 100.779 1.848C101.707 2.68 102.171 3.736 102.171 5.016C102.171 6.264 101.707 7.32 100.779 8.184C99.8829 9.016 98.7309 9.432 97.3229 9.432ZM101.403 12.216V39H93.1949V12.216H101.403Z" fill="#1F2665"/>
<path d="M117.527 11.832C119.415 11.832 121.063 12.216 122.471 12.984C123.911 13.752 125.015 14.76 125.783 16.008V12.216H133.991V38.952C133.991 41.416 133.495 43.64 132.503 45.624C131.543 47.64 130.055 49.24 128.039 50.424C126.055 51.608 123.575 52.2 120.599 52.2C116.631 52.2 113.415 51.256 110.951 49.368C108.487 47.512 107.079 44.984 106.727 41.784H114.839C115.095 42.808 115.703 43.608 116.663 44.184C117.623 44.792 118.807 45.096 120.215 45.096C121.911 45.096 123.255 44.6 124.247 43.608C125.271 42.648 125.783 41.096 125.783 38.952V35.16C124.983 36.408 123.879 37.432 122.471 38.232C121.063 39 119.415 39.384 117.527 39.384C115.319 39.384 113.319 38.824 111.527 37.704C109.735 36.552 108.311 34.936 107.255 32.856C106.231 30.744 105.719 28.312 105.719 25.56C105.719 22.808 106.231 20.392 107.255 18.312C108.311 16.232 109.735 14.632 111.527 13.512C113.319 12.392 115.319 11.832 117.527 11.832ZM125.783 25.608C125.783 23.56 125.207 21.944 124.055 20.76C122.935 19.576 121.559 18.984 119.927 18.984C118.295 18.984 116.903 19.576 115.751 20.76C114.631 21.912 114.071 23.512 114.071 25.56C114.071 27.608 114.631 29.24 115.751 30.456C116.903 31.64 118.295 32.232 119.927 32.232C121.559 32.232 122.935 31.64 124.055 30.456C125.207 29.272 125.783 27.656 125.783 25.608Z" fill="#1F2665"/>
<path d="M156.249 11.928C159.385 11.928 161.881 12.952 163.737 15C165.625 17.016 166.569 19.8 166.569 23.352V39H158.409V24.456C158.409 22.664 157.945 21.272 157.017 20.28C156.089 19.288 154.841 18.792 153.273 18.792C151.705 18.792 150.457 19.288 149.529 20.28C148.601 21.272 148.137 22.664 148.137 24.456V39H139.929V12.216H148.137V15.768C148.969 14.584 150.089 13.656 151.497 12.984C152.905 12.28 154.489 11.928 156.249 11.928Z" fill="#1F2665"/>
<path d="M48.3442 61.304L39.5602 95H29.6242L24.2482 72.824L18.6802 95H8.7442L0.200195 61.304H8.9842L13.8322 85.832L19.8322 61.304H28.8562L34.6162 85.832L39.5122 61.304H48.3442Z" fill="#1F2665"/>
<path d="M64.6526 95.384C62.0286 95.384 59.6606 94.824 57.5486 93.704C55.4686 92.584 53.8206 90.984 52.6046 88.904C51.4206 86.824 50.8286 84.392 50.8286 81.608C50.8286 78.856 51.4366 76.44 52.6526 74.36C53.8686 72.248 55.5326 70.632 57.6446 69.512C59.7566 68.392 62.1246 67.832 64.7486 67.832C67.3726 67.832 69.7406 68.392 71.8526 69.512C73.9646 70.632 75.6286 72.248 76.8446 74.36C78.0606 76.44 78.6686 78.856 78.6686 81.608C78.6686 84.36 78.0446 86.792 76.7966 88.904C75.5806 90.984 73.9006 92.584 71.7566 93.704C69.6446 94.824 67.2766 95.384 64.6526 95.384ZM64.6526 88.28C66.2206 88.28 67.5486 87.704 68.6366 86.552C69.7566 85.4 70.3166 83.752 70.3166 81.608C70.3166 79.464 69.7726 77.816 68.6846 76.664C67.6286 75.512 66.3166 74.936 64.7486 74.936C63.1486 74.936 61.8206 75.512 60.7646 76.664C59.7086 77.784 59.1806 79.432 59.1806 81.608C59.1806 83.752 59.6926 85.4 60.7166 86.552C61.7726 87.704 63.0846 88.28 64.6526 88.28Z" fill="#1F2665"/>
<path d="M91.2311 72.68C92.1911 71.208 93.3911 70.056 94.8311 69.224C96.2711 68.36 97.8711 67.928 99.6311 67.928V76.616H97.3751C95.3271 76.616 93.7911 77.064 92.7671 77.96C91.7431 78.824 91.2311 80.36 91.2311 82.568V95H83.0231V68.216H91.2311V72.68Z" fill="#1F2665"/>
<path d="M119.922 95L111.762 83.768V95H103.554V59.48H111.762V79.112L119.874 68.216H130.002L118.866 81.656L130.098 95H119.922Z" fill="#1F2665"/>
</svg>
