<svg width="109" height="131" viewBox="0 0 109 131" fill="none" xmlns="http://www.w3.org/2000/svg">
<path d="M82.8133 12.0356C74.9334 4.19204 65.3158 0.142837 54.2278 0.00077931L54.1739 0L54.1194 0.00077931C43.0264 0.142726 33.4275 4.19526 25.5768 12.0565C17.6281 20.0806 13.5974 29.9228 13.5974 41.3103C13.5974 51.9682 17.0666 61.7303 23.9083 70.3248L51.0828 101.476C51.9234 102.439 53.0997 102.932 54.2819 102.932C55.2774 102.932 56.2776 102.583 57.0848 101.87C58.8509 100.313 59.0266 97.6118 57.4773 95.836L30.5076 64.9251C24.8538 57.8015 22.1041 50.0761 22.1041 41.3104C22.1041 32.1397 25.2114 24.5449 31.5917 18.1044C37.8832 11.8044 45.2699 8.67977 54.174 8.55363C63.0826 8.6801 70.4934 11.8077 76.8078 18.0928C83.2 24.5449 86.3074 32.1397 86.3074 41.3104C86.3074 50.0452 83.5636 57.7481 77.9205 64.8525L66.1092 77.5788L44.7885 52.6982C44.7652 52.6714 44.7394 52.6481 44.7157 52.6221C44.692 52.5954 44.6721 52.5679 44.6481 52.5429C44.047 51.9056 43.6495 51.2562 43.4327 50.5572C43.4178 50.5086 43.4019 50.4611 43.3853 50.4134C43.1353 49.6959 43.0639 48.931 43.1685 48.0735C43.1809 47.9737 43.1893 47.8734 43.1942 47.7728C43.2898 45.9123 43.9892 44.4882 45.3898 43.2955C46.7779 42.1188 48.2587 41.6517 50.0427 41.8247C50.1108 41.8314 50.1789 41.8364 50.247 41.8398C51.2413 41.8882 52.0755 42.1429 52.7973 42.6186C52.9019 42.688 53.0099 42.7527 53.1204 42.812C53.6276 43.0856 54.0858 43.4693 54.5203 43.9863C54.5302 43.998 54.5402 44.0102 54.5502 44.0214L66.247 57.6201C67.7839 59.4075 70.4696 59.6021 72.246 58.0577C74.0229 56.5126 74.2178 53.8122 72.6809 52.0257L60.9983 38.443C59.9221 37.1685 58.6809 36.134 57.307 35.366C55.3735 34.1295 53.1726 33.4358 50.7597 33.3022C46.7506 32.9397 43.0004 34.1324 39.8989 36.7633C36.7501 39.4435 34.9569 43.0442 34.7078 47.1841C34.4748 49.2667 34.6853 51.2813 35.3345 53.1751C35.9227 55.0326 36.9341 56.7448 38.3355 58.2716L38.3372 58.2732L65.8974 89.7212L84.2491 70.5695L84.4539 70.3314C91.3281 61.7353 94.8138 51.9715 94.8138 41.3102C94.8138 29.9228 90.7836 20.0806 82.8133 12.0356Z" fill="white"/>
<path d="M6.53391 126.046C4.35594 126.046 2.72246 125.526 1.63348 124.485C0.544493 123.428 0 121.939 0 120.018V112.692C0 112.516 0.0560507 112.372 0.168152 112.26C0.296268 112.148 0.448406 112.092 0.624565 112.092H6.75011C9.04018 112.092 10.6817 112.58 11.6746 113.557C12.6835 114.534 13.236 115.975 13.3321 117.88C13.3481 118.04 13.3561 118.417 13.3561 119.009C13.3561 119.617 13.3481 120.002 13.3321 120.162C13.252 122.083 12.6835 123.548 11.6265 124.557C10.5856 125.55 8.88804 126.046 6.53391 126.046ZM6.50989 122.636C7.59888 122.636 8.35156 122.443 8.76793 122.059C9.20032 121.659 9.43253 120.986 9.46456 120.042C9.48058 119.882 9.48859 119.537 9.48859 119.009C9.48859 118.497 9.48058 118.16 9.46456 118C9.43253 117.104 9.19232 116.439 8.74391 116.007C8.29551 115.574 7.59087 115.358 6.63 115.358H3.72337V119.946C3.72337 120.858 3.96359 121.539 4.44402 121.987C4.92446 122.419 5.61308 122.636 6.50989 122.636Z" fill="white"/>
<path d="M16.2492 120.114C16.073 120.114 15.9209 120.058 15.7928 119.946C15.6807 119.834 15.6246 119.689 15.6246 119.513V112.692C15.6246 112.516 15.6807 112.372 15.7928 112.26C15.9209 112.148 16.073 112.092 16.2492 112.092H19.2279C19.4041 112.092 19.5482 112.148 19.6603 112.26C19.7724 112.372 19.8284 112.516 19.8284 112.692V119.513C19.8284 119.673 19.7724 119.818 19.6603 119.946C19.5482 120.058 19.4041 120.114 19.2279 120.114H16.2492Z" fill="white"/>
<path d="M23.1226 120.114C22.9464 120.114 22.7943 120.058 22.6662 119.946C22.5541 119.834 22.498 119.689 22.498 119.513V112.692C22.498 112.516 22.5541 112.372 22.6662 112.26C22.7943 112.148 22.9464 112.092 23.1226 112.092H26.1013C26.2775 112.092 26.4216 112.148 26.5337 112.26C26.6458 112.372 26.7018 112.516 26.7018 112.692V119.513C26.7018 119.673 26.6458 119.818 26.5337 119.946C26.4216 120.058 26.2775 120.114 26.1013 120.114H23.1226Z" fill="white"/>
<path d="M32.6144 116.367C32.6464 117.04 32.8386 117.432 33.1909 117.544L33.8635 117.76C33.9916 117.808 34.0877 117.904 34.1518 118.048C34.2318 118.176 34.2719 118.328 34.2719 118.505L34.2959 119.705C34.2959 119.946 34.1838 120.138 33.9596 120.282C33.7514 120.41 33.4952 120.458 33.1909 120.426L32.206 120.282C31.3733 120.154 30.6846 119.713 30.1401 118.961C29.5957 118.192 29.3234 117.232 29.3234 116.079V112.692C29.3554 112.516 29.4195 112.372 29.5156 112.26C29.6277 112.148 29.7638 112.092 29.924 112.092H34.7763C36.8742 112.092 38.4357 112.636 39.4606 113.725C40.5015 114.798 41.07 116.311 41.1661 118.264C41.1821 118.425 41.1901 118.649 41.1901 118.937C41.1901 121.099 40.6777 122.788 39.6528 124.005C38.6278 125.205 37.0024 125.806 34.7763 125.806H30.2122C30.0521 125.806 29.9079 125.75 29.7798 125.638C29.6677 125.51 29.6117 125.366 29.6117 125.205V122.996C29.6117 122.82 29.6677 122.676 29.7798 122.564C29.9079 122.451 30.0521 122.395 30.2122 122.395H34.6562C35.473 122.395 36.1376 122.155 36.65 121.675C37.1785 121.195 37.4668 120.522 37.5148 119.657C37.5308 119.497 37.5388 119.257 37.5388 118.937C37.5388 118.633 37.5308 118.401 37.5148 118.24C37.4828 117.376 37.2025 116.703 36.6741 116.223C36.1456 115.743 35.473 115.502 34.6562 115.502H32.6144V116.367Z" fill="white"/>
<path d="M49.9326 126.046C47.7546 126.046 46.1211 125.526 45.0321 124.485C43.9431 123.428 43.3986 121.939 43.3986 120.018V112.692C43.3986 112.516 43.4547 112.372 43.5668 112.26C43.6949 112.148 43.8471 112.092 44.0232 112.092H50.1488C52.4388 112.092 54.0803 112.58 55.0732 113.557C56.0821 114.534 56.6346 115.975 56.7307 117.88C56.7467 118.04 56.7547 118.417 56.7547 119.009C56.7547 119.617 56.7467 120.002 56.7307 120.162C56.6506 122.083 56.0821 123.548 55.0252 124.557C53.9842 125.55 52.2867 126.046 49.9326 126.046ZM49.9085 122.636C50.9975 122.636 51.7502 122.443 52.1666 122.059C52.599 121.659 52.8312 120.986 52.8632 120.042C52.8792 119.882 52.8872 119.537 52.8872 119.009C52.8872 118.497 52.8792 118.16 52.8632 118C52.8312 117.104 52.591 116.439 52.1426 116.007C51.6942 115.574 50.9895 115.358 50.0286 115.358H47.122V119.946C47.122 120.858 47.3622 121.539 47.8427 121.987C48.3231 122.419 49.0117 122.636 49.9085 122.636Z" fill="white"/>
<path d="M59.4825 125.806C59.3224 125.806 59.1782 125.75 59.0501 125.638C58.938 125.51 58.882 125.366 58.882 125.205V122.155C58.882 121.979 58.938 121.835 59.0501 121.723C59.1782 121.611 59.3224 121.555 59.4825 121.555H62.5333C62.7094 121.555 62.8536 121.611 62.9657 121.723C63.0778 121.835 63.1338 121.979 63.1338 122.155V125.205C63.1338 125.366 63.0778 125.51 62.9657 125.638C62.8536 125.75 62.7094 125.806 62.5333 125.806H59.4825Z" fill="white"/>
<path d="M72.2424 126.118C72.0822 126.15 71.9301 126.094 71.786 125.95C71.6578 125.806 71.5938 125.646 71.5938 125.47V123.068C71.5938 122.908 71.6498 122.764 71.7619 122.636C71.874 122.492 72.0182 122.379 72.1943 122.299L72.963 121.987C73.7157 121.683 74.3002 121.251 74.7166 120.69C75.149 120.114 75.3652 119.297 75.3652 118.24C75.3652 117.232 75.181 116.527 74.8127 116.127C74.4604 115.711 73.8038 115.502 72.8429 115.502H66.4531C66.277 115.502 66.1248 115.446 65.9967 115.334C65.8846 115.206 65.8286 115.062 65.8286 114.902V112.668C65.8286 112.508 65.8926 112.372 66.0207 112.26C66.1489 112.148 66.293 112.092 66.4531 112.092H73.6837C75.7656 112.092 77.2549 112.596 78.1517 113.605C79.0645 114.598 79.521 116.103 79.521 118.12C79.521 120.154 78.9204 121.819 77.7193 123.116C76.5182 124.413 75.0209 125.318 73.2273 125.83L72.2424 126.118ZM66.4531 130.393C66.277 130.393 66.1248 130.337 65.9967 130.225C65.8846 130.113 65.8286 129.969 65.8286 129.793V118.192C65.8286 118.016 65.8846 117.872 65.9967 117.76C66.1248 117.632 66.277 117.568 66.4531 117.568H69.1916C69.3678 117.568 69.5119 117.632 69.624 117.76C69.7361 117.872 69.7921 118.016 69.7921 118.192V129.793C69.7921 129.969 69.7361 130.113 69.624 130.225C69.5119 130.337 69.3678 130.393 69.1916 130.393H66.4531Z" fill="white"/>
<path d="M88.2407 126.046C86.0627 126.046 84.4292 125.526 83.3402 124.485C82.2512 123.428 81.7067 121.939 81.7067 120.018V112.692C81.7067 112.516 81.7628 112.372 81.8749 112.26C82.003 112.148 82.1551 112.092 82.3313 112.092H88.4569C90.7469 112.092 92.3884 112.58 93.3813 113.557C94.3902 114.534 94.9427 115.975 95.0388 117.88C95.0548 118.04 95.0628 118.417 95.0628 119.009C95.0628 119.617 95.0548 120.002 95.0388 120.162C94.9587 122.083 94.3902 123.548 93.3333 124.557C92.2923 125.55 90.5948 126.046 88.2407 126.046ZM88.2166 122.636C89.3056 122.636 90.0583 122.443 90.4747 122.059C90.9071 121.659 91.1393 120.986 91.1713 120.042C91.1873 119.882 91.1953 119.537 91.1953 119.009C91.1953 118.497 91.1873 118.16 91.1713 118C91.1393 117.104 90.8991 116.439 90.4507 116.007C90.0022 115.574 89.2976 115.358 88.3367 115.358H85.4301V119.946C85.4301 120.858 85.6703 121.539 86.1508 121.987C86.6312 122.419 87.3198 122.636 88.2166 122.636Z" fill="white"/>
<path d="M107.857 112.092C108.034 112.092 108.178 112.148 108.29 112.26C108.402 112.372 108.458 112.516 108.458 112.692V114.734C108.458 114.894 108.402 115.038 108.29 115.166C108.178 115.294 108.034 115.358 107.857 115.358H106.728C106.536 115.663 106.384 116.071 106.272 116.583C106.176 117.08 106.128 117.64 106.128 118.264V125.278C106.128 125.422 106.056 125.55 105.912 125.662C105.768 125.758 105.615 125.806 105.455 125.806H102.645C102.485 125.806 102.356 125.758 102.26 125.662C102.164 125.566 102.116 125.438 102.116 125.278V118.024C102.116 116.743 102.276 115.855 102.597 115.358H97.1197C96.9435 115.358 96.7994 115.302 96.6873 115.19C96.5752 115.062 96.5191 114.91 96.5191 114.734V112.692C96.5191 112.516 96.5752 112.372 96.6873 112.26C96.8154 112.148 96.9595 112.092 97.1197 112.092H107.857Z" fill="white"/>
</svg>
