<svg width="109" height="131" viewBox="0 0 109 131" fill="none" xmlns="http://www.w3.org/2000/svg">
<path d="M82.8136 12.0356C74.9337 4.19204 65.3161 0.142837 54.2281 0.00077931L54.1742 0L54.1197 0.00077931C43.0267 0.142726 33.4278 4.19526 25.5771 12.0565C17.6284 20.0806 13.5977 29.9228 13.5977 41.3103C13.5977 51.9682 17.0669 61.7303 23.9086 70.3248L51.0831 101.476C51.9237 102.439 53.1 102.932 54.2822 102.932C55.2777 102.932 56.2779 102.583 57.0851 101.87C58.8512 100.313 59.0269 97.6118 57.4776 95.836L30.5079 64.9251C24.8541 57.8015 22.1044 50.0761 22.1044 41.3104C22.1044 32.1397 25.2117 24.5449 31.592 18.1044C37.8835 11.8044 45.2702 8.67977 54.1743 8.55363C63.0829 8.6801 70.4937 11.8077 76.8081 18.0928C83.2003 24.5449 86.3077 32.1397 86.3077 41.3104C86.3077 50.0452 83.5639 57.7481 77.9208 64.8525L66.1095 77.5788L44.7888 52.6982C44.7655 52.6714 44.7397 52.6481 44.716 52.6221C44.6923 52.5954 44.6724 52.5679 44.6484 52.5429C44.0473 51.9056 43.6498 51.2562 43.433 50.5572C43.4181 50.5086 43.4022 50.4611 43.3856 50.4134C43.1356 49.6959 43.0642 48.931 43.1688 48.0735C43.1812 47.9737 43.1896 47.8734 43.1945 47.7728C43.2901 45.9123 43.9895 44.4882 45.3901 43.2955C46.7782 42.1188 48.259 41.6517 50.043 41.8247C50.1111 41.8314 50.1792 41.8364 50.2473 41.8398C51.2416 41.8882 52.0758 42.1429 52.7976 42.6186C52.9022 42.688 53.0102 42.7527 53.1207 42.812C53.6279 43.0856 54.0861 43.4693 54.5206 43.9863C54.5305 43.998 54.5405 44.0102 54.5505 44.0214L66.2473 57.6201C67.7842 59.4075 70.4699 59.6021 72.2463 58.0577C74.0232 56.5126 74.2181 53.8122 72.6812 52.0257L60.9986 38.443C59.9224 37.1685 58.6812 36.134 57.3073 35.366C55.3738 34.1295 53.1729 33.4358 50.76 33.3022C46.7509 32.9397 43.0007 34.1324 39.8992 36.7633C36.7504 39.4435 34.9572 43.0442 34.7081 47.1841C34.4751 49.2667 34.6856 51.2813 35.3348 53.1751C35.923 55.0326 36.9344 56.7448 38.3358 58.2716L38.3375 58.2732L65.8977 89.7212L84.2494 70.5695L84.4542 70.3314C91.3284 61.7353 94.8141 51.9715 94.8141 41.3102C94.8141 29.9228 90.7839 20.0806 82.8136 12.0356Z" fill="#1F2665"/>
<path d="M6.53391 126.046C4.35594 126.046 2.72246 125.526 1.63348 124.485C0.544493 123.428 0 121.939 0 120.018V112.692C0 112.516 0.0560507 112.372 0.168152 112.26C0.296268 112.148 0.448406 112.092 0.624565 112.092H6.75011C9.04018 112.092 10.6817 112.58 11.6746 113.557C12.6835 114.534 13.236 115.975 13.3321 117.88C13.3481 118.04 13.3561 118.417 13.3561 119.009C13.3561 119.617 13.3481 120.002 13.3321 120.162C13.252 122.083 12.6835 123.548 11.6265 124.557C10.5856 125.55 8.88804 126.046 6.53391 126.046ZM6.50989 122.636C7.59888 122.636 8.35156 122.443 8.76793 122.059C9.20032 121.659 9.43253 120.986 9.46456 120.042C9.48058 119.882 9.48859 119.537 9.48859 119.009C9.48859 118.497 9.48058 118.16 9.46456 118C9.43253 117.104 9.19232 116.439 8.74391 116.007C8.29551 115.574 7.59087 115.358 6.63 115.358H3.72337V119.946C3.72337 120.858 3.96359 121.539 4.44402 121.987C4.92446 122.419 5.61308 122.636 6.50989 122.636Z" fill="#1F2665"/>
<path d="M16.2496 120.114C16.0734 120.114 15.9213 120.058 15.7932 119.946C15.6811 119.834 15.625 119.689 15.625 119.513V112.692C15.625 112.516 15.6811 112.372 15.7932 112.26C15.9213 112.148 16.0734 112.092 16.2496 112.092H19.2283C19.4045 112.092 19.5486 112.148 19.6607 112.26C19.7728 112.372 19.8288 112.516 19.8288 112.692V119.513C19.8288 119.673 19.7728 119.818 19.6607 119.946C19.5486 120.058 19.4045 120.114 19.2283 120.114H16.2496Z" fill="#1F2665"/>
<path d="M23.1226 120.114C22.9464 120.114 22.7943 120.058 22.6662 119.946C22.5541 119.834 22.498 119.689 22.498 119.513V112.692C22.498 112.516 22.5541 112.372 22.6662 112.26C22.7943 112.148 22.9464 112.092 23.1226 112.092H26.1013C26.2775 112.092 26.4216 112.148 26.5337 112.26C26.6458 112.372 26.7018 112.516 26.7018 112.692V119.513C26.7018 119.673 26.6458 119.818 26.5337 119.946C26.4216 120.058 26.2775 120.114 26.1013 120.114H23.1226Z" fill="#1F2665"/>
<path d="M32.6142 116.367C32.6462 117.04 32.8384 117.432 33.1907 117.544L33.8633 117.76C33.9914 117.808 34.0875 117.904 34.1516 118.048C34.2316 118.176 34.2717 118.328 34.2717 118.505L34.2957 119.705C34.2957 119.946 34.1836 120.138 33.9594 120.282C33.7512 120.41 33.495 120.458 33.1907 120.426L32.2058 120.282C31.3731 120.154 30.6844 119.713 30.1399 118.961C29.5955 118.192 29.3232 117.232 29.3232 116.079V112.692C29.3552 112.516 29.4193 112.372 29.5154 112.26C29.6275 112.148 29.7636 112.092 29.9238 112.092H34.7761C36.874 112.092 38.4355 112.636 39.4604 113.725C40.5013 114.798 41.0698 116.311 41.1659 118.264C41.1819 118.425 41.1899 118.649 41.1899 118.937C41.1899 121.099 40.6775 122.788 39.6526 124.005C38.6276 125.205 37.0022 125.806 34.7761 125.806H30.212C30.0519 125.806 29.9077 125.75 29.7796 125.638C29.6675 125.51 29.6115 125.366 29.6115 125.205V122.996C29.6115 122.82 29.6675 122.676 29.7796 122.564C29.9077 122.451 30.0519 122.395 30.212 122.395H34.656C35.4728 122.395 36.1374 122.155 36.6498 121.675C37.1783 121.195 37.4666 120.522 37.5146 119.657C37.5306 119.497 37.5386 119.257 37.5386 118.937C37.5386 118.633 37.5306 118.401 37.5146 118.24C37.4826 117.376 37.2023 116.703 36.6739 116.223C36.1454 115.743 35.4728 115.502 34.656 115.502H32.6142V116.367Z" fill="#1F2665"/>
<path d="M49.9324 126.046C47.7544 126.046 46.1209 125.526 45.0319 124.485C43.9429 123.428 43.3984 121.939 43.3984 120.018V112.692C43.3984 112.516 43.4545 112.372 43.5666 112.26C43.6947 112.148 43.8469 112.092 44.023 112.092H50.1486C52.4386 112.092 54.0801 112.58 55.073 113.557C56.0819 114.534 56.6344 115.975 56.7305 117.88C56.7465 118.04 56.7545 118.417 56.7545 119.009C56.7545 119.617 56.7465 120.002 56.7305 120.162C56.6504 122.083 56.0819 123.548 55.025 124.557C53.984 125.55 52.2865 126.046 49.9324 126.046ZM49.9083 122.636C50.9973 122.636 51.75 122.443 52.1664 122.059C52.5988 121.659 52.831 120.986 52.863 120.042C52.879 119.882 52.887 119.537 52.887 119.009C52.887 118.497 52.879 118.16 52.863 118C52.831 117.104 52.5908 116.439 52.1424 116.007C51.694 115.574 50.9893 115.358 50.0284 115.358H47.1218V119.946C47.1218 120.858 47.362 121.539 47.8425 121.987C48.3229 122.419 49.0115 122.636 49.9083 122.636Z" fill="#1F2665"/>
<path d="M59.4823 125.806C59.3222 125.806 59.178 125.75 59.0499 125.638C58.9378 125.51 58.8818 125.366 58.8818 125.205V122.155C58.8818 121.979 58.9378 121.835 59.0499 121.723C59.178 121.611 59.3222 121.555 59.4823 121.555H62.5331C62.7092 121.555 62.8534 121.611 62.9655 121.723C63.0776 121.835 63.1336 121.979 63.1336 122.155V125.205C63.1336 125.366 63.0776 125.51 62.9655 125.638C62.8534 125.75 62.7092 125.806 62.5331 125.806H59.4823Z" fill="#1F2665"/>
<path d="M72.2419 126.118C72.0817 126.15 71.9296 126.094 71.7855 125.95C71.6573 125.806 71.5933 125.646 71.5933 125.47V123.068C71.5933 122.908 71.6493 122.764 71.7614 122.636C71.8735 122.492 72.0177 122.379 72.1938 122.299L72.9625 121.987C73.7152 121.683 74.2997 121.251 74.7161 120.69C75.1485 120.114 75.3647 119.297 75.3647 118.24C75.3647 117.232 75.1805 116.527 74.8122 116.127C74.4599 115.711 73.8033 115.502 72.8424 115.502H66.4526C66.2765 115.502 66.1243 115.446 65.9962 115.334C65.8841 115.206 65.8281 115.062 65.8281 114.902V112.668C65.8281 112.508 65.8921 112.372 66.0202 112.26C66.1484 112.148 66.2925 112.092 66.4526 112.092H73.6832C75.7651 112.092 77.2544 112.596 78.1512 113.605C79.064 114.598 79.5205 116.103 79.5205 118.12C79.5205 120.154 78.9199 121.819 77.7188 123.116C76.5177 124.413 75.0204 125.318 73.2268 125.83L72.2419 126.118ZM66.4526 130.393C66.2765 130.393 66.1243 130.337 65.9962 130.225C65.8841 130.113 65.8281 129.969 65.8281 129.793V118.192C65.8281 118.016 65.8841 117.872 65.9962 117.76C66.1243 117.632 66.2765 117.568 66.4526 117.568H69.1911C69.3673 117.568 69.5114 117.632 69.6235 117.76C69.7356 117.872 69.7916 118.016 69.7916 118.192V129.793C69.7916 129.969 69.7356 130.113 69.6235 130.225C69.5114 130.337 69.3673 130.393 69.1911 130.393H66.4526Z" fill="#1F2665"/>
<path d="M88.241 126.046C86.063 126.046 84.4295 125.526 83.3405 124.485C82.2515 123.428 81.707 121.939 81.707 120.018V112.692C81.707 112.516 81.7631 112.372 81.8752 112.26C82.0033 112.148 82.1554 112.092 82.3316 112.092H88.4572C90.7472 112.092 92.3887 112.58 93.3816 113.557C94.3905 114.534 94.943 115.975 95.0391 117.88C95.0551 118.04 95.0631 118.417 95.0631 119.009C95.0631 119.617 95.0551 120.002 95.0391 120.162C94.959 122.083 94.3905 123.548 93.3336 124.557C92.2926 125.55 90.5951 126.046 88.241 126.046ZM88.2169 122.636C89.3059 122.636 90.0586 122.443 90.475 122.059C90.9074 121.659 91.1396 120.986 91.1716 120.042C91.1876 119.882 91.1956 119.537 91.1956 119.009C91.1956 118.497 91.1876 118.16 91.1716 118C91.1396 117.104 90.8994 116.439 90.451 116.007C90.0025 115.574 89.2979 115.358 88.337 115.358H85.4304V119.946C85.4304 120.858 85.6706 121.539 86.1511 121.987C86.6315 122.419 87.3201 122.636 88.2169 122.636Z" fill="#1F2665"/>
<path d="M107.857 112.092C108.034 112.092 108.178 112.148 108.29 112.26C108.402 112.372 108.458 112.516 108.458 112.692V114.734C108.458 114.894 108.402 115.038 108.29 115.166C108.178 115.294 108.034 115.358 107.857 115.358H106.728C106.536 115.663 106.384 116.071 106.272 116.583C106.176 117.08 106.128 117.64 106.128 118.264V125.278C106.128 125.422 106.056 125.55 105.912 125.662C105.768 125.758 105.615 125.806 105.455 125.806H102.645C102.485 125.806 102.356 125.758 102.26 125.662C102.164 125.566 102.116 125.438 102.116 125.278V118.024C102.116 116.743 102.276 115.855 102.597 115.358H97.1201C96.9439 115.358 96.7998 115.302 96.6877 115.19C96.5756 115.062 96.5195 114.91 96.5195 114.734V112.692C96.5195 112.516 96.5756 112.372 96.6877 112.26C96.8158 112.148 96.9599 112.092 97.1201 112.092H107.857Z" fill="#1F2665"/>
</svg>
