<svg width="177" height="102" viewBox="0 0 177 102" fill="none" xmlns="http://www.w3.org/2000/svg">
<path d="M38.616 86.5271H34.8809C34.7197 86.5271 34.6525 86.3129 34.8003 86.2326C37.0843 84.9878 39.5967 83.4753 42.0957 81.7219C42.351 81.5345 42.2301 81.1196 41.9077 81.1196H39.9326C39.5027 81.1196 39.1668 80.7716 39.1668 80.3566C39.1668 79.9417 39.5161 79.5937 39.9326 79.5937C39.9326 79.5937 48.5179 79.5937 51.3931 79.5937C52.3067 79.5937 52.1724 78.1347 52.0783 77.8804C51.8902 77.3852 51.4065 77.0238 50.8423 77.0238H48.4239C48.2761 77.0238 48.2089 76.8498 48.3164 76.7427C54.0265 71.4422 58.4199 64.8836 57.8422 57.5888C57.7347 56.1566 57.4928 54.9118 57.1301 53.8008C57.1032 53.7339 57.0495 53.6937 56.9688 53.6937H43.7618C43.3318 53.6937 42.9959 53.3457 42.9959 52.9308C42.9959 52.5159 43.3453 52.1679 43.7618 52.1679H63.6866C63.8075 52.1679 63.915 52.1946 64.0225 52.2482C64.2912 51.9805 64.4659 51.6057 64.4659 51.1908V50.9231C64.4659 50.2003 63.8613 49.5979 63.1357 49.5979H54.752C54.7117 49.5979 54.6714 49.5846 54.6445 49.5578C50.5601 45.4352 43.4393 46.1714 38.1726 47.7508C38.0114 47.791 37.9039 47.617 38.0114 47.4965C39.5699 45.7431 41.4508 43.6148 43.1572 41.674C43.2512 41.5669 43.184 41.3394 43.1034 41.3394C42.1898 41.326 39.5699 41.3394 39.5699 41.3394C39.1399 41.3394 38.804 40.9914 38.804 40.5765V40.4158C38.804 40.0812 39.0728 39.8135 39.4086 39.8135H59.5082C59.6291 39.8135 59.7366 39.8403 59.844 39.8938C60.1128 39.6261 60.2874 39.2513 60.2874 38.8364V38.5687C60.2874 37.8459 59.6828 37.2436 58.9573 37.2436H47.0669C47.3893 36.8688 47.6715 36.5743 47.8596 36.3602C50.6407 33.2013 50.6273 29.1323 47.9402 27.6867C45.3337 26.2278 42.2167 27.071 40.0401 30.3369C38.7906 32.2108 33.8598 39.1309 29.6142 44.9935C29.5336 45.1006 29.6142 45.2478 29.7485 45.2478H35.3377C35.7676 45.2478 36.1035 45.5958 36.1035 46.0108C36.1035 46.4391 35.7542 46.7737 35.3377 46.7737H28.3915C28.3378 46.7737 28.2975 46.8005 28.2572 46.8406C25.6776 50.3877 22.8561 54.0953 22.7486 54.2559C22.6949 54.3362 22.7889 54.4835 22.8561 54.4835C24.0787 54.4835 31.8982 54.4835 31.8982 54.4835C32.3281 54.4835 32.664 54.8315 32.664 55.2464C32.664 55.6613 32.3147 56.0093 31.8982 56.0093C31.8982 56.0093 24.6968 56.0093 22.2784 56.0093C22.1978 56.0093 22.1306 56.0763 22.1306 56.1566C21.9559 58.954 24.4818 61.9389 27.9616 61.0421C30.7831 60.2925 42.566 52.1545 47.6312 55.0858C49.1897 55.9826 49.7674 57.4549 49.6331 59.2084C49.6196 59.3021 49.7002 59.3824 49.7943 59.3824H54.6176C54.9535 59.3824 55.2222 59.6501 55.2222 59.9847V60.3059C55.2222 60.6406 54.9535 60.9082 54.6176 60.9082H49.4315C49.3644 60.9082 49.2972 60.9484 49.2837 61.0153C48.182 64.6962 44.7425 69.0865 40.8597 72.0981C37.3665 74.8286 32.4222 78.1213 27.5451 80.4102C27.3839 80.4771 27.4376 80.718 27.6123 80.718H33.0805C33.5105 80.718 33.8464 81.066 33.8464 81.481C33.8464 81.8959 33.497 82.2439 33.0805 82.2439H22.9367C22.9233 82.2439 22.9099 82.2439 22.883 82.2573C21.9156 82.5651 20.9617 82.8061 20.0481 82.9801C18.6239 83.2344 14.6605 82.7927 14.3514 85.6035C14.1902 87.1027 14.956 88.8695 16.8907 89.0033C18.503 89.1104 33.2821 89.1506 38.9922 89.097C39.5161 89.097 39.9461 88.6553 39.9461 88.1333V87.8522C39.9461 87.1294 39.3549 86.5271 38.616 86.5271Z" fill="white"/>
<path d="M11.0732 78.4159C11.0328 78.0411 10.7104 77.7467 10.3208 77.7467H4.43602C4.00608 77.7467 3.67019 77.3987 3.67019 76.9837C3.67019 76.5688 4.01952 76.2208 4.43602 76.2208C4.43602 76.2208 13.9349 76.3145 14.0424 76.3011C14.4186 76.2342 14.4858 75.6586 14.4858 75.2437C14.4858 74.3737 13.7737 73.5036 12.8869 73.5036C12.8869 73.5036 5.96766 73.4367 5.16153 73.4902C2.07137 73.7312 -0.212666 76.3948 0.015737 79.393C0.069479 80.0757 0.163528 80.7315 0.324754 81.3205C0.351625 81.4142 0.432238 81.4811 0.539722 81.4811H3.42835C3.85829 81.4811 4.19418 81.8291 4.19418 82.244C4.19418 82.659 3.84485 83.007 3.42835 83.007H1.48021C1.29211 83.007 1.19806 83.2211 1.31898 83.3684C2.0445 84.2384 3.13277 84.7202 4.74503 84.5998C7.75459 84.3722 11.3284 81.6015 11.0866 78.5364C11.0732 78.4962 11.0732 78.4561 11.0732 78.4159Z" fill="white"/>
<path d="M16.3262 40.4563C16.7561 40.4563 17.092 40.8043 17.092 41.2192C17.092 41.6341 16.7427 41.9821 16.3262 41.9821H12.6852C12.6449 41.9821 12.6046 42.0089 12.5911 42.0491C10.3743 47.2558 7.72749 53.7609 6.22271 58.3252C6.19584 58.3921 6.24958 58.4591 6.31676 58.4591H9.82343C10.2534 58.4591 10.5893 58.8071 10.5893 59.222C10.5893 59.6503 10.2399 59.9849 9.82343 59.9849H5.76591C5.7256 59.9849 5.67186 60.0117 5.65842 60.0653C5.41658 60.9085 5.22849 61.6313 5.121 62.2336C4.6642 64.6161 4.79855 67.6947 6.54517 67.5475C6.70639 67.5341 27.1687 67.4805 27.2896 67.4672C27.6658 67.4002 27.7329 66.8247 27.7329 66.4097C27.7329 65.5397 27.0209 64.8169 26.1341 64.8169H12.1612C12.094 64.8169 12.0403 64.75 12.0672 64.6831C13.666 59.8243 15.1573 55.8758 17.0517 51.7666C17.0786 51.6996 17.0383 51.6193 16.9577 51.6193H11.3685C10.9386 51.6193 10.6027 51.2713 10.6027 50.8564C10.6027 50.4281 10.952 50.0934 11.3685 50.0934C11.3685 50.0934 20.8674 50.1871 20.9749 50.1738C21.3511 50.1068 21.4183 49.5313 21.4183 49.1163C21.4183 48.2463 20.7062 47.5235 19.8194 47.5235H19.2686C19.188 47.5235 19.1342 47.4432 19.1745 47.3763C20.0613 45.6362 21.0421 43.8293 22.1572 41.8483C22.8424 40.6303 23.1246 39.4791 23.0977 38.4619C23.0977 38.4083 23.044 38.3548 22.9902 38.3548H18.1131C17.6832 38.3548 17.3473 38.0068 17.3473 37.5919C17.3473 37.1769 17.6966 36.8289 18.1131 36.8289C18.1131 36.8289 29.7886 36.8557 29.8961 36.8289C30.2723 36.762 30.3394 36.2668 30.3394 35.8518C30.3394 34.9818 29.6274 34.259 28.7406 34.259H19.0671C17.1458 34.1385 15.4395 35.4637 14.284 38.0737C13.9884 38.7564 13.6525 39.5059 13.3167 40.2956C13.2898 40.3626 13.3435 40.4429 13.4107 40.4429L16.3262 40.4563Z" fill="white"/>
<path d="M106.465 74.4942H104.248C104.154 74.4942 104.1 74.3737 104.181 74.3068C109.125 70.2378 113.478 65.2586 115.252 59.677C115.279 59.6101 115.225 59.5432 115.144 59.5432H109.313C108.883 59.5432 108.548 59.1952 108.548 58.7802C108.548 58.3653 108.897 58.0173 109.313 58.0173H118.584C118.705 58.0173 119.041 57.9504 119.094 57.87C119.256 57.6291 119.35 57.348 119.35 57.0402C119.35 56.1702 118.638 55.4474 117.751 55.4474H116.152C116.098 55.4474 116.045 55.3938 116.045 55.3403C116.085 54.6041 116.085 53.8679 116.031 53.1184C115.816 50.2808 115.064 48.1124 113.975 46.4794C113.881 46.3322 113.707 46.2519 113.532 46.2519H101.978C101.548 46.2519 101.212 45.9039 101.212 45.4889C101.212 45.0606 101.561 44.726 101.978 44.726H121.916C122.037 44.726 122.373 44.6725 122.413 44.6055C122.588 44.3646 122.682 44.0701 122.682 43.7623C122.682 42.8923 121.97 42.1695 121.083 42.1695H106.438C106.438 42.1695 101.803 41.8884 96.2003 43.3473C96.1062 43.3741 96.0256 43.267 96.0928 43.1867C99.5726 39.2917 104.718 33.3889 106.075 31.8898C107.526 30.2434 108.198 28.3695 108.144 26.7232C108.144 26.6697 108.091 26.6161 108.037 26.6161H102.609C102.179 26.6161 101.843 26.2681 101.843 25.8532C101.843 25.4248 102.193 25.0902 102.609 25.0902H122.547C122.668 25.0902 123.004 25.0367 123.044 24.9698C123.219 24.7288 123.313 24.4344 123.313 24.1265C123.313 23.2565 122.601 22.5337 121.714 22.5337H103.348C103.24 22.5337 103.133 22.5471 103.026 22.5738C101.306 22.7746 99.6129 23.8588 98.2694 25.8666C97.7991 26.576 96.7914 28.0082 95.5016 29.8419C95.4479 29.9088 95.5016 30.0025 95.5823 30.0025H99.7607C100.191 30.0025 100.527 30.3505 100.527 30.7655C100.527 31.1804 100.177 31.5284 99.7607 31.5284H94.3462C94.3059 31.5284 94.279 31.5418 94.2656 31.5686C91.0948 36.0124 86.8895 41.8482 84.1218 45.6094C84.068 45.6763 84.1218 45.77 84.2024 45.77H87.306C87.7359 45.77 88.0718 46.118 88.0718 46.533C88.0718 46.9479 87.7225 47.2959 87.306 47.2959H82.9126C82.8857 47.2959 82.8454 47.3093 82.832 47.3361C82.093 48.3399 81.5556 49.036 81.3272 49.3037C80.2255 50.5886 80.1314 52.3287 80.7495 53.801C80.7629 53.8412 80.8032 53.8679 80.8435 53.8679H86.0296C86.4595 53.8679 86.7954 54.2159 86.7954 54.6309C86.7954 55.0592 86.4461 55.3938 86.0296 55.3938H82.0796C81.9855 55.3938 81.9318 55.5143 82.0124 55.5812C83.0469 56.5048 84.5114 56.9866 86.1908 56.5449C89.0123 55.7954 100.795 47.6573 105.86 50.5886C106.613 51.0303 107.137 51.5925 107.473 52.2751C107.486 52.3153 107.526 52.3287 107.567 52.3287H110.227C110.657 52.3287 110.993 52.6767 110.993 53.0916C110.993 53.5199 110.643 53.8546 110.227 53.8546H107.983C107.929 53.8546 107.876 53.9081 107.876 53.9616C108.024 57.0268 105.632 61.1895 102.327 64.6696C102.26 64.7365 102.313 64.8436 102.407 64.8436H107.473C107.903 64.8436 108.238 65.1916 108.238 65.6066C108.238 66.0215 107.889 66.3695 107.473 66.3695H100.607C100.58 66.3695 100.553 66.3829 100.54 66.3963C100.07 66.8112 99.586 67.2262 99.0889 67.6009C95.5419 70.3716 90.5171 73.7045 85.5862 76.0067C85.4788 76.0602 85.5191 76.2075 85.6265 76.2075H92.6668C93.0967 76.2075 93.4326 76.5555 93.4326 76.9704C93.4326 77.3853 93.0833 77.7334 92.6668 77.7334H81.2063H81.1928C80.1852 78.0546 79.2178 78.3089 78.2773 78.4829C76.8532 78.7372 72.8897 78.2955 72.5807 81.1064C72.3523 83.2078 74.3542 84.9345 77.5518 85.577C77.5921 85.5904 77.6324 85.5636 77.6593 85.5368C77.8071 85.3494 78.0221 85.229 78.2639 85.229H98.2156C98.3365 85.229 98.6724 85.1754 98.7262 85.0951C98.8874 84.8542 98.9949 84.5597 98.9949 84.2518C98.9949 83.3818 98.2828 82.659 97.396 82.659H91.7128C91.6053 82.659 91.565 82.5118 91.6591 82.4716C93.6341 81.4544 95.8241 80.1962 98.0678 78.7506C98.1484 78.6971 98.0544 78.59 98.0141 78.5766C97.611 78.4294 97.2483 78.2286 97.2483 77.8137C97.2483 77.3854 97.5976 77.0507 98.0141 77.0507H107.285C107.405 77.0507 107.728 76.9972 107.782 76.9303C107.956 76.6893 108.05 76.3949 108.05 76.0736C108.064 75.2036 107.338 74.4942 106.465 74.4942Z" fill="white"/>
<path d="M175.511 0.100387H157.037C155.76 -0.0334625 154.511 -0.0334625 153.355 0.100387C149.177 0.582247 145.348 2.13491 142.002 4.91898C141.895 5.01268 141.976 5.28038 142.123 5.28038C144.407 5.28038 148.29 5.28038 148.29 5.28038C148.72 5.28038 149.056 5.62839 149.056 6.04332C149.056 6.47164 148.707 6.80626 148.29 6.80626C148.29 6.80626 142.164 6.80626 140 6.80626C139.987 6.80626 139.947 6.81965 139.933 6.83303C136.991 9.93835 134.519 14.1412 132.638 19.5622C132.611 19.6558 132.692 19.8432 132.772 19.8432C134.116 19.8299 134.586 19.8432 134.586 19.8432C135.016 19.8432 135.352 20.1912 135.352 20.6062C135.352 21.0211 135.002 21.3691 134.586 21.3691C134.586 21.3691 133.35 21.3691 132.181 21.3691C132.127 21.3691 132.006 21.4361 132.006 21.4762C131.67 22.5872 131.348 23.7383 131.052 24.9429C130.542 27.0042 130.072 29.0655 129.642 31.1134C129.628 31.1803 129.709 31.3008 129.763 31.3008C131.872 31.3008 134.828 31.3008 134.828 31.3008C135.258 31.3008 135.594 31.6488 135.594 32.0637C135.594 32.4921 135.244 32.8267 134.828 32.8267C134.828 32.8267 131.173 32.8267 129.44 32.8267C129.373 32.8267 129.252 32.9338 129.252 33.0007C127.479 41.5269 126.256 49.6114 125.624 56.3039C125.611 56.4244 125.705 56.4512 125.745 56.4512C126.001 56.4779 126.525 56.4512 126.78 56.4512C127.21 56.4378 127.546 56.7992 127.546 57.2141C127.546 57.6291 127.196 57.9771 126.78 57.9771C126.78 57.9771 123.958 57.9101 123.018 57.9771C122.978 57.9771 122.857 58.0038 122.843 58.0172C120.532 59.0479 118.154 60.8414 116.932 63.8932C116.905 63.9601 116.959 64.0405 117.026 64.0405C119.175 64.0405 127.559 64.0405 127.559 64.0405C127.989 64.0405 128.325 64.3885 128.325 64.8034C128.325 65.2183 127.976 65.5663 127.559 65.5663C127.559 65.5663 119.458 65.5663 116.502 65.5663C116.448 65.5663 116.394 65.6065 116.381 65.66C116.22 66.3962 116.112 67.1993 116.085 68.0693C115.911 72.6872 117.899 75.9263 121.997 75.9799C124.147 75.9933 127.21 75.4578 129.736 71.6833C129.789 71.603 129.682 71.4156 129.615 71.4156C128.204 71.4156 124.751 71.4156 124.751 71.4156C124.321 71.4156 123.985 71.0676 123.985 70.6526C123.985 70.2377 124.335 69.8897 124.751 69.8897H144.703C144.824 69.8897 145.16 69.8228 145.213 69.7558C145.375 69.5149 145.469 69.2338 145.469 68.926V68.8189C145.469 68.0024 144.797 67.3332 143.977 67.3332H131.845C132.651 65.0176 133.31 62.0996 133.74 58.4188C134.25 54.0017 134.908 48.1793 135.916 42.0757H130.327H129.104C128.674 42.0757 128.338 41.7277 128.338 41.3128C128.338 40.8978 128.688 40.5498 129.104 40.5498H130.327H138.375H139.597C139.718 40.5498 140.068 40.4695 140.135 40.3758C140.283 40.1483 140.377 39.8672 140.377 39.5727V39.4656C140.377 38.6491 139.705 37.9799 138.885 37.9799H137.663H136.642C137.381 34.0982 138.281 30.1898 139.382 26.509C139.396 26.4554 139.315 26.3617 139.262 26.3617C138.738 26.3617 137.784 26.3617 137.784 26.3617C137.354 26.3617 137.018 26.0137 137.018 25.5988C137.018 25.1705 137.367 24.8358 137.784 24.8358C137.784 24.8358 144.743 24.8358 147.054 24.8358C147.175 24.8358 147.484 24.8091 147.524 24.7555C147.712 24.5012 147.833 24.1934 147.833 23.8587V23.7517C147.833 22.9352 147.162 22.2659 146.342 22.2659H140.807C141.693 19.8968 142.701 17.6883 143.83 15.734C143.937 15.56 143.816 15.1986 143.682 15.1986C142.258 15.1986 138.093 15.1986 138.093 15.1986C137.663 15.1986 137.327 14.8506 137.327 14.4357C137.327 14.0074 137.676 13.6728 138.093 13.6728H158.031C158.152 13.6728 158.488 13.6192 158.541 13.5389C158.703 13.298 158.797 13.0169 158.797 12.6957V12.5886C158.797 11.7721 158.125 11.1028 157.305 11.1028H147.229C149.473 8.80063 152.106 7.38182 155.183 7.23458C160.087 7.00704 165.004 12.883 168.242 9.6305C169.169 8.69355 168.9 6.4181 166.764 4.23635C166.751 4.22296 166.657 4.18281 166.616 4.18281C164.063 4.18281 156.271 4.18281 156.271 4.18281C155.841 4.18281 155.505 3.8348 155.505 3.41986C155.505 3.00493 155.854 2.65692 156.271 2.65692H176.209C176.33 2.65692 176.666 2.60338 176.72 2.52307C176.881 2.28214 176.988 1.98767 176.988 1.67982V1.57274C177.002 0.769637 176.33 0.100387 175.511 0.100387Z" fill="white"/>
<path d="M85.0086 35.0354H78.4655C78.0893 33.2552 77.1219 32.1175 75.4962 31.8096C71.1969 31.0065 69.5846 34.6071 68.2545 40.9649C68.1604 41.42 68.0664 41.8751 67.9589 42.3302H73.1988C73.6287 42.3302 73.9646 42.6782 73.9646 43.0932C73.9646 43.5215 73.6153 43.8561 73.1988 43.8561H67.623C65.8361 51.8335 63.6058 59.6905 61.9264 65.3925H64.6806C65.1106 65.3925 65.4465 65.7405 65.4465 66.1555C65.4465 66.5704 65.0971 66.9184 64.6806 66.9184H61.4696C60.4082 70.4922 59.6289 73.0086 59.4542 73.8251C58.675 77.4256 58.5272 80.3837 60.1529 80.8656C62.1682 81.4679 63.9551 81.1734 65.9436 77.4792C66.4004 76.6359 67.1662 74.8156 68.0933 72.4063H67.1797C66.7497 72.4063 66.4138 72.0583 66.4138 71.6433C66.4138 71.2284 66.7631 70.8804 67.1797 70.8804C67.1797 70.8804 78.2102 70.8938 79.0298 70.8804C79.3791 70.8804 80.239 68.3238 77.9146 68.3238C75.8456 68.3238 69.6383 68.3238 69.6383 68.3238C70.5385 65.861 71.5059 63.1171 72.4598 60.2795H68.2679C67.838 60.2795 67.5021 59.9315 67.5021 59.5165C67.5021 59.0882 67.8514 58.7536 68.2679 58.7536H77.5384C77.8877 58.7536 78.0624 58.6197 78.1296 58.4993C78.2505 58.2851 78.3177 58.0442 78.3177 57.7899V57.5489C78.3177 56.786 77.6996 56.1703 76.9338 56.1703H73.8302C75.644 50.6021 77.2697 45.1143 78.1296 41.2594C78.2908 40.5099 78.4117 39.8138 78.5058 39.1446H76.262C75.8993 39.1446 75.5903 38.8501 75.5903 38.4753V38.2746C75.5903 37.9132 75.8859 37.6053 76.262 37.6053H85.64C85.761 37.6053 86.0834 37.5652 86.1237 37.5116C86.2984 37.2707 86.4059 36.9628 86.4059 36.6416V36.4408C86.4059 35.6511 85.7744 35.0354 85.0086 35.0354Z" fill="white"/>
<path d="M39.9005 100.204C39.8213 100.204 39.7541 100.18 39.6987 100.133C39.6512 100.078 39.6274 100.01 39.6274 99.9312V99.1124C39.6274 99.0333 39.6512 98.966 39.6987 98.9107C39.7541 98.8553 39.8213 98.8276 39.9005 98.8276H40.7195C40.7986 98.8276 40.8619 98.8553 40.9094 98.9107C40.9648 98.966 40.9925 99.0333 40.9925 99.1124V99.9312C40.9925 100.01 40.9648 100.078 40.9094 100.133C40.8619 100.18 40.7986 100.204 40.7195 100.204H39.9005Z" fill="white"/>
<path d="M46.6878 93.4285C46.7749 93.4285 46.8421 93.4522 46.8896 93.4997C46.9371 93.5471 46.9608 93.6144 46.9608 93.7014V94.0811C46.9608 94.1602 46.9331 94.2235 46.8777 94.271C46.8303 94.3184 46.7669 94.3422 46.6878 94.3422H45.9875C45.8767 94.4608 45.7857 94.6467 45.7145 94.8999C45.6512 95.153 45.6195 95.4378 45.6195 95.7542V99.943C45.6195 100.022 45.5918 100.085 45.5364 100.133C45.481 100.18 45.4138 100.204 45.3346 100.204H44.8361C44.7569 100.204 44.6936 100.18 44.6462 100.133C44.5987 100.085 44.5749 100.022 44.5749 99.943V95.6831C44.5749 95.3587 44.6026 95.0818 44.658 94.8524C44.7134 94.623 44.7886 94.4529 44.8836 94.3422H41.6074C41.5283 94.3422 41.461 94.3184 41.4056 94.271C41.3582 94.2235 41.3344 94.1602 41.3344 94.0811V93.7014C41.3344 93.6223 41.3582 93.559 41.4056 93.5115C41.461 93.4562 41.5283 93.4285 41.6074 93.4285H46.6878Z" fill="white"/>
<path d="M48.7015 100.204C48.6223 100.204 48.5551 100.18 48.4997 100.133C48.4522 100.078 48.4284 100.01 48.4284 99.9312V93.7014C48.4284 93.6144 48.4522 93.5471 48.4997 93.4997C48.5551 93.4522 48.6223 93.4285 48.7015 93.4285H50.9805C52.0013 93.4285 52.761 93.6737 53.2596 94.1642C53.7581 94.6467 54.0074 95.3745 54.0074 96.3476V99.9312C54.0074 100.01 53.9797 100.078 53.9243 100.133C53.8768 100.18 53.8135 100.204 53.7344 100.204H53.2358C53.1567 100.204 53.0894 100.18 53.034 100.133C52.9865 100.078 52.9628 100.01 52.9628 99.9312V96.3832C52.9628 95.0225 52.2823 94.3422 50.9212 94.3422H49.473V99.9312C49.473 100.01 49.4453 100.078 49.3899 100.133C49.3424 100.18 49.2791 100.204 49.2 100.204H48.7015Z" fill="white"/>
<path d="M55.9792 97.4511C55.9001 97.4511 55.8328 97.4274 55.7774 97.3799C55.7299 97.3245 55.7062 97.2573 55.7062 97.1782V93.7014C55.7062 93.6144 55.7299 93.5471 55.7774 93.4997C55.8328 93.4522 55.9001 93.4285 55.9792 93.4285H56.5015C56.5806 93.4285 56.6439 93.4562 56.6914 93.5115C56.7468 93.559 56.7745 93.6223 56.7745 93.7014V97.1782C56.7745 97.2573 56.7468 97.3245 56.6914 97.3799C56.6439 97.4274 56.5806 97.4511 56.5015 97.4511H55.9792Z" fill="white"/>
<path d="M58.5128 100.204C58.4337 100.204 58.3704 100.18 58.3229 100.133C58.2754 100.078 58.2517 100.01 58.2517 99.9312V99.5515C58.2517 99.4723 58.2754 99.4091 58.3229 99.3616C58.3704 99.3062 58.4337 99.2785 58.5128 99.2785H61.9432V96.3832C61.9432 95.0304 61.2627 94.354 59.9016 94.354H58.6315C58.5524 94.354 58.4891 94.3303 58.4416 94.2828C58.3941 94.2275 58.3704 94.1602 58.3704 94.0811V93.7014C58.3704 93.6223 58.3941 93.559 58.4416 93.5115C58.4891 93.4562 58.5524 93.4285 58.6315 93.4285H59.9609C61.9868 93.4285 62.9997 94.3975 62.9997 96.3357V99.2785H63.4507C63.5299 99.2785 63.5932 99.3062 63.6407 99.3616C63.6881 99.4091 63.7119 99.4723 63.7119 99.5515V99.9312C63.7119 100.01 63.6881 100.078 63.6407 100.133C63.5932 100.18 63.5299 100.204 63.4507 100.204H58.5128Z" fill="white"/>
<path d="M67.6218 101.094C67.5506 101.094 67.4952 101.07 67.4556 101.023C67.4239 100.975 67.416 100.916 67.4319 100.845L67.693 99.1717C67.7247 98.9423 67.8354 98.8276 68.0254 98.8276H68.785C68.8404 98.8276 68.8879 98.8513 68.9275 98.8988C68.967 98.9384 68.9868 98.9819 68.9868 99.0293C68.9868 99.0926 68.971 99.1599 68.9394 99.2311L68.3221 100.821C68.2509 101.003 68.1401 101.094 67.9897 101.094H67.6218Z" fill="white"/>
<path d="M73.499 100.204C73.4199 100.204 73.3526 100.18 73.2972 100.133C73.2498 100.078 73.226 100.01 73.226 99.9312V96.3832C73.226 95.0225 72.5455 94.3422 71.1844 94.3422H69.6531C69.574 94.3422 69.5067 94.3184 69.4513 94.271C69.4039 94.2235 69.3801 94.1602 69.3801 94.0811V93.7014C69.3801 93.6223 69.4039 93.559 69.4513 93.5115C69.5067 93.4562 69.574 93.4285 69.6531 93.4285H71.2556C73.2656 93.4285 74.2706 94.3936 74.2706 96.3238V99.9312C74.2706 100.01 74.2429 100.078 74.1875 100.133C74.14 100.18 74.0767 100.204 73.9976 100.204H73.499Z" fill="white"/>
<path d="M82.5092 93.4285C82.5883 93.4285 82.6516 93.4562 82.6991 93.5115C82.7545 93.559 82.7822 93.6223 82.7822 93.7014V97.0002C82.7822 97.6647 82.6437 98.2501 82.3667 98.7564C82.0977 99.2548 81.7139 99.6385 81.2153 99.9074C80.7247 100.168 80.1589 100.291 79.5179 100.275H78.6395C78.1251 100.275 77.6622 100.157 77.2507 99.9193C76.8392 99.682 76.5148 99.3497 76.2774 98.9225C76.0479 98.4874 75.9331 97.9891 75.9331 97.4274V93.7014C75.9331 93.6144 75.9569 93.5471 76.0044 93.4997C76.0598 93.4522 76.127 93.4285 76.2061 93.4285H76.6691C76.7482 93.4285 76.8115 93.4562 76.859 93.5115C76.9144 93.559 76.9421 93.6223 76.9421 93.7014L76.9777 97.0714C77.6978 97.016 78.1964 96.8222 78.4733 96.49C78.7582 96.1577 78.9007 95.7226 78.9007 95.1847V93.7014C78.9007 93.6223 78.9244 93.559 78.9719 93.5115C79.0273 93.4562 79.0945 93.4285 79.1737 93.4285H79.6366C79.7157 93.4285 79.779 93.4562 79.8265 93.5115C79.8819 93.559 79.9096 93.6223 79.9096 93.7014V95.2321C79.9096 95.9916 79.6682 96.6165 79.1855 97.107C78.7028 97.5975 77.9946 97.8664 77.0608 97.9139C77.1874 98.3727 77.4209 98.7287 77.7611 98.9819C78.1093 99.2271 78.5248 99.3497 79.0075 99.3497H79.3873C80.1391 99.3576 80.7247 99.1401 81.1441 98.6971C81.5635 98.2541 81.7732 97.6647 81.7732 96.929V93.7014C81.7732 93.6223 81.7969 93.559 81.8444 93.5115C81.8998 93.4562 81.9671 93.4285 82.0462 93.4285H82.5092Z" fill="white"/>
<path d="M84.7174 100.204C84.6382 100.204 84.571 100.18 84.5156 100.133C84.4681 100.078 84.4443 100.01 84.4443 99.9312V93.7014C84.4443 93.6144 84.4681 93.5471 84.5156 93.4997C84.571 93.4522 84.6382 93.4285 84.7174 93.4285H85.2396C85.3188 93.4285 85.3821 93.4562 85.4296 93.5115C85.485 93.559 85.5126 93.6223 85.5126 93.7014V99.9312C85.5126 100.01 85.485 100.078 85.4296 100.133C85.3821 100.18 85.3188 100.204 85.2396 100.204H84.7174Z" fill="white"/>
<path d="M87.6269 100.204C87.5478 100.204 87.4805 100.18 87.4251 100.133C87.3776 100.078 87.3539 100.01 87.3539 99.9312V99.5396C87.3539 99.4526 87.3776 99.3853 87.4251 99.3379C87.4805 99.2904 87.5478 99.2667 87.6269 99.2667H89.3243C90.0128 99.2667 90.5192 99.0926 90.8437 98.7445C91.1681 98.3965 91.3462 97.8902 91.3778 97.2257C91.3858 97.1149 91.3897 96.9765 91.3897 96.8103C91.3897 96.6521 91.3858 96.5176 91.3778 96.4069C91.3541 95.7345 91.1761 95.2282 90.8437 94.888C90.5192 94.5399 90.0128 94.3659 89.3243 94.3659H87.6269C87.5478 94.3659 87.4805 94.3422 87.4251 94.2947C87.3776 94.2393 87.3539 94.1721 87.3539 94.093V93.7014C87.3539 93.6144 87.3776 93.5471 87.4251 93.4997C87.4805 93.4522 87.5478 93.4285 87.6269 93.4285H89.3837C90.3887 93.4285 91.1325 93.6816 91.6152 94.1879C92.1059 94.6863 92.367 95.4101 92.3987 96.3594C92.4066 96.4702 92.4105 96.6205 92.4105 96.8103C92.4105 97.0002 92.4066 97.1545 92.3987 97.2731C92.367 98.2224 92.1059 98.9502 91.6152 99.4565C91.1325 99.9549 90.3887 100.204 89.3837 100.204H87.6269Z" fill="white"/>
<path d="M95.5433 93.4285C96.2634 93.4285 96.8332 93.5313 97.2526 93.737C97.6799 93.9427 97.9885 94.271 98.1785 94.7219C98.3684 95.1728 98.4633 95.774 98.4633 96.5256C98.4633 97.5381 98.2141 98.3292 97.7155 98.8988C97.217 99.4605 96.5681 99.8758 95.7688 100.145L95.2703 100.311C95.2545 100.319 95.2268 100.323 95.1872 100.323C95.1318 100.323 95.0804 100.303 95.0329 100.263C94.9933 100.224 94.9736 100.168 94.9736 100.097V99.5752C94.9736 99.4328 95.0606 99.326 95.2347 99.2548L95.6976 99.0768C96.2436 98.8711 96.6631 98.5745 96.9558 98.1868C97.2486 97.7992 97.395 97.2296 97.395 96.4781C97.395 95.9481 97.3317 95.5327 97.2051 95.2321C97.0785 94.9236 96.8688 94.7021 96.576 94.5676C96.2911 94.4331 95.8955 94.3659 95.389 94.3659H94.9854L93.8934 94.354C93.8142 94.354 93.747 94.3303 93.6916 94.2828C93.6441 94.2354 93.6204 94.1721 93.6204 94.093V92.052C93.6204 91.9729 93.6441 91.9096 93.6916 91.8621C93.747 91.8067 93.8142 91.7791 93.8934 91.7791H94.3682C94.4473 91.7791 94.5106 91.8067 94.5581 91.8621C94.6056 91.9096 94.6293 91.9729 94.6293 92.052V93.4285H95.5433Z" fill="white"/>
<path d="M105.805 100.323C104.832 100.323 104.1 100.07 103.609 99.5633C103.127 99.0491 102.885 98.3134 102.885 97.3562V93.7014C102.885 93.6144 102.909 93.5471 102.957 93.4997C103.012 93.4522 103.079 93.4285 103.158 93.4285H106.007C107.028 93.4285 107.76 93.6579 108.203 94.1167C108.646 94.5755 108.888 95.2796 108.927 96.2289C108.935 96.308 108.939 96.5216 108.939 96.8697C108.939 97.2178 108.935 97.4313 108.927 97.5105C108.903 98.4518 108.646 99.1559 108.156 99.6226C107.665 100.089 106.882 100.323 105.805 100.323ZM105.793 99.3853C106.537 99.3853 107.071 99.2311 107.396 98.9225C107.72 98.6061 107.891 98.1156 107.906 97.4511C107.914 97.372 107.918 97.1782 107.918 96.8697C107.918 96.5612 107.914 96.3673 107.906 96.2882C107.891 95.6554 107.709 95.1728 107.36 94.8405C107.02 94.5083 106.549 94.3422 105.948 94.3422H103.882V97.3562C103.882 98.0128 104.041 98.5151 104.357 98.8632C104.682 99.2113 105.16 99.3853 105.793 99.3853Z" fill="white"/>
<path d="M113.733 99.9668C113.733 100.038 113.706 100.097 113.65 100.145C113.603 100.184 113.544 100.204 113.472 100.204H110.303C110.224 100.204 110.157 100.18 110.101 100.133C110.054 100.078 110.03 100.01 110.03 99.9312V99.5515C110.03 99.4723 110.054 99.4091 110.101 99.3616C110.157 99.3062 110.224 99.2785 110.303 99.2785H112.641L112.451 96.2645C112.412 95.7503 112.368 95.3745 112.321 95.1372C112.281 94.892 112.186 94.6942 112.036 94.5439C111.886 94.3936 111.652 94.3184 111.336 94.3184H110.849C110.77 94.3184 110.703 94.2947 110.647 94.2472C110.6 94.1998 110.576 94.1365 110.576 94.0574V93.6777C110.576 93.5985 110.6 93.5353 110.647 93.4878C110.703 93.4324 110.77 93.4047 110.849 93.4047H111.336C111.905 93.4047 112.341 93.5194 112.641 93.7489C112.95 93.9704 113.16 94.2789 113.271 94.6744C113.389 95.07 113.468 95.5881 113.508 96.2289L113.733 99.9312V99.9668Z" fill="white"/>
<path d="M115.517 100.204C115.438 100.204 115.371 100.18 115.315 100.133C115.268 100.078 115.244 100.01 115.244 99.9312V99.5396C115.244 99.4526 115.268 99.3853 115.315 99.3379C115.371 99.2904 115.438 99.2667 115.517 99.2667H117.214C117.903 99.2667 118.409 99.0926 118.734 98.7445C119.058 98.3965 119.236 97.8902 119.268 97.2257C119.276 97.1149 119.28 96.9765 119.28 96.8103C119.28 96.6521 119.276 96.5176 119.268 96.4069C119.244 95.7345 119.066 95.2282 118.734 94.888C118.409 94.5399 117.903 94.3659 117.214 94.3659H115.517C115.438 94.3659 115.371 94.3422 115.315 94.2947C115.268 94.2393 115.244 94.1721 115.244 94.093V93.7014C115.244 93.6144 115.268 93.5471 115.315 93.4997C115.371 93.4522 115.438 93.4285 115.517 93.4285H117.274C118.279 93.4285 119.023 93.6816 119.505 94.1879C119.996 94.6863 120.257 95.4101 120.289 96.3594C120.297 96.4702 120.301 96.6205 120.301 96.8103C120.301 97.0002 120.297 97.1545 120.289 97.2731C120.257 98.2224 119.996 98.9502 119.505 99.4565C119.023 99.9549 118.279 100.204 117.274 100.204H115.517Z" fill="white"/>
<path d="M122.064 97.4511C121.985 97.4511 121.918 97.4274 121.863 97.3799C121.815 97.3245 121.791 97.2573 121.791 97.1782V93.7014C121.791 93.6144 121.815 93.5471 121.863 93.4997C121.918 93.4522 121.985 93.4285 122.064 93.4285H122.587C122.666 93.4285 122.729 93.4562 122.777 93.5115C122.832 93.559 122.86 93.6223 122.86 93.7014V97.1782C122.86 97.2573 122.832 97.3245 122.777 97.3799C122.729 97.4274 122.666 97.4511 122.587 97.4511H122.064Z" fill="white"/>
<path d="M129.405 100.204C129.326 100.204 129.259 100.18 129.204 100.133C129.156 100.078 129.132 100.01 129.132 99.9312V96.3832C129.132 95.0225 128.456 94.3422 127.103 94.3422H124.895C124.816 94.3422 124.748 94.3184 124.693 94.271C124.645 94.2235 124.622 94.1602 124.622 94.0811V93.7014C124.622 93.6144 124.645 93.5471 124.693 93.4997C124.748 93.4522 124.816 93.4285 124.895 93.4285H127.162C129.172 93.4285 130.177 94.4015 130.177 96.3476V99.9312C130.177 100.01 130.149 100.078 130.094 100.133C130.046 100.18 129.983 100.204 129.904 100.204H129.405ZM124.895 100.204C124.816 100.204 124.748 100.18 124.693 100.133C124.645 100.078 124.622 100.01 124.622 99.9312V95.9441C124.622 95.865 124.645 95.8017 124.693 95.7542C124.748 95.6989 124.816 95.6712 124.895 95.6712H125.393C125.472 95.6712 125.536 95.6989 125.583 95.7542C125.639 95.8017 125.666 95.865 125.666 95.9441V99.9312C125.666 100.01 125.639 100.078 125.583 100.133C125.536 100.18 125.472 100.204 125.393 100.204H124.895Z" fill="white"/>
<path d="M133.46 93.4285C134.18 93.4285 134.75 93.5313 135.17 93.737C135.597 93.9427 135.906 94.271 136.095 94.7219C136.285 95.1728 136.38 95.774 136.38 96.5256C136.38 97.5381 136.131 98.3292 135.632 98.8988C135.134 99.4605 134.485 99.8758 133.686 100.145L133.187 100.311C133.171 100.319 133.144 100.323 133.104 100.323C133.049 100.323 132.997 100.303 132.95 100.263C132.91 100.224 132.891 100.168 132.891 100.097V99.5752C132.891 99.4328 132.978 99.326 133.152 99.2548L133.615 99.0768C134.161 98.8711 134.58 98.5745 134.873 98.1868C135.166 97.7992 135.312 97.2296 135.312 96.4781C135.312 95.9481 135.249 95.5327 135.122 95.2321C134.995 94.9236 134.786 94.7021 134.493 94.5676C134.208 94.4331 133.812 94.3659 133.306 94.3659H132.902L131.81 94.354C131.731 94.354 131.664 94.3303 131.609 94.2828C131.561 94.2354 131.537 94.1721 131.537 94.093V92.052C131.537 91.9729 131.561 91.9096 131.609 91.8621C131.664 91.8067 131.731 91.7791 131.81 91.7791H132.285C132.364 91.7791 132.428 91.8067 132.475 91.8621C132.523 91.9096 132.546 91.9729 132.546 92.052V93.4285H133.46Z" fill="white"/>
</svg>
