<svg width="177" height="102" viewBox="0 0 177 102" fill="none" xmlns="http://www.w3.org/2000/svg">
<path d="M38.6155 86.5271H34.8804C34.7192 86.5271 34.652 86.3129 34.7998 86.2326C37.0838 84.9878 39.5962 83.4753 42.0952 81.7219C42.3505 81.5345 42.2296 81.1196 41.9072 81.1196H39.9321C39.5022 81.1196 39.1663 80.7716 39.1663 80.3566C39.1663 79.9417 39.5156 79.5937 39.9321 79.5937C39.9321 79.5937 48.5174 79.5937 51.3926 79.5937C52.3062 79.5937 52.1719 78.1347 52.0778 77.8804C51.8897 77.3852 51.406 77.0238 50.8418 77.0238H48.4234C48.2756 77.0238 48.2084 76.8498 48.3159 76.7427C54.026 71.4422 58.4194 64.8836 57.8417 57.5888C57.7342 56.1566 57.4923 54.9118 57.1296 53.8008C57.1027 53.7339 57.049 53.6937 56.9683 53.6937H43.7613C43.3313 53.6937 42.9954 53.3457 42.9954 52.9308C42.9954 52.5159 43.3448 52.1679 43.7613 52.1679H63.6861C63.807 52.1679 63.9145 52.1946 64.022 52.2482C64.2907 51.9805 64.4654 51.6057 64.4654 51.1908V50.9231C64.4654 50.2003 63.8608 49.5979 63.1352 49.5979H54.7515C54.7112 49.5979 54.6709 49.5846 54.644 49.5578C50.5596 45.4352 43.4388 46.1714 38.1721 47.7508C38.0109 47.791 37.9034 47.617 38.0109 47.4965C39.5694 45.7431 41.4503 43.6148 43.1567 41.674C43.2507 41.5669 43.1835 41.3394 43.1029 41.3394C42.1893 41.326 39.5694 41.3394 39.5694 41.3394C39.1394 41.3394 38.8035 40.9914 38.8035 40.5765V40.4158C38.8035 40.0812 39.0723 39.8135 39.4081 39.8135H59.5077C59.6286 39.8135 59.7361 39.8403 59.8435 39.8938C60.1123 39.6261 60.2869 39.2513 60.2869 38.8364V38.5687C60.2869 37.8459 59.6823 37.2436 58.9568 37.2436H47.0664C47.3888 36.8688 47.671 36.5743 47.8591 36.3602C50.6402 33.2013 50.6268 29.1323 47.9397 27.6867C45.3332 26.2278 42.2162 27.071 40.0396 30.3369C38.7901 32.2108 33.8593 39.1309 29.6137 44.9935C29.5331 45.1006 29.6137 45.2478 29.748 45.2478H35.3372C35.7671 45.2478 36.103 45.5958 36.103 46.0108C36.103 46.4391 35.7537 46.7737 35.3372 46.7737H28.391C28.3373 46.7737 28.297 46.8005 28.2567 46.8406C25.6771 50.3877 22.8556 54.0953 22.7481 54.2559C22.6944 54.3362 22.7884 54.4835 22.8556 54.4835C24.0782 54.4835 31.8977 54.4835 31.8977 54.4835C32.3276 54.4835 32.6635 54.8315 32.6635 55.2464C32.6635 55.6613 32.3142 56.0093 31.8977 56.0093C31.8977 56.0093 24.6963 56.0093 22.2779 56.0093C22.1973 56.0093 22.1301 56.0763 22.1301 56.1566C21.9554 58.954 24.4813 61.9389 27.9611 61.0421C30.7826 60.2925 42.5655 52.1545 47.6307 55.0858C49.1892 55.9826 49.7669 57.4549 49.6326 59.2084C49.6191 59.3021 49.6997 59.3824 49.7938 59.3824H54.6171C54.953 59.3824 55.2217 59.6501 55.2217 59.9847V60.3059C55.2217 60.6406 54.953 60.9082 54.6171 60.9082H49.431C49.3639 60.9082 49.2967 60.9484 49.2832 61.0153C48.1815 64.6962 44.742 69.0865 40.8592 72.0981C37.366 74.8286 32.4217 78.1213 27.5446 80.4102C27.3834 80.4771 27.4371 80.718 27.6118 80.718H33.08C33.51 80.718 33.8459 81.066 33.8459 81.481C33.8459 81.8959 33.4965 82.2439 33.08 82.2439H22.9362C22.9228 82.2439 22.9094 82.2439 22.8825 82.2573C21.9151 82.5651 20.9612 82.8061 20.0476 82.9801C18.6234 83.2344 14.66 82.7927 14.3509 85.6035C14.1897 87.1027 14.9555 88.8695 16.8902 89.0033C18.5025 89.1104 33.2816 89.1506 38.9917 89.097C39.5156 89.097 39.9456 88.6553 39.9456 88.1333V87.8522C39.9456 87.1294 39.3544 86.5271 38.6155 86.5271Z" fill="#1F2665"/>
<path d="M11.0732 78.4159C11.0328 78.0411 10.7104 77.7467 10.3208 77.7467H4.43602C4.00608 77.7467 3.67019 77.3987 3.67019 76.9837C3.67019 76.5688 4.01952 76.2208 4.43602 76.2208C4.43602 76.2208 13.9349 76.3145 14.0424 76.3011C14.4186 76.2342 14.4858 75.6586 14.4858 75.2437C14.4858 74.3737 13.7737 73.5036 12.8869 73.5036C12.8869 73.5036 5.96766 73.4367 5.16153 73.4902C2.07137 73.7312 -0.212666 76.3948 0.015737 79.393C0.069479 80.0757 0.163528 80.7315 0.324754 81.3205C0.351625 81.4142 0.432238 81.4811 0.539722 81.4811H3.42835C3.85829 81.4811 4.19418 81.8291 4.19418 82.244C4.19418 82.659 3.84485 83.007 3.42835 83.007H1.48021C1.29211 83.007 1.19806 83.2211 1.31898 83.3684C2.0445 84.2384 3.13277 84.7202 4.74503 84.5998C7.75459 84.3722 11.3284 81.6015 11.0866 78.5364C11.0732 78.4962 11.0732 78.4561 11.0732 78.4159Z" fill="#1F2665"/>
<path d="M16.3267 40.4563C16.7566 40.4563 17.0925 40.8043 17.0925 41.2192C17.0925 41.6341 16.7432 41.9821 16.3267 41.9821H12.6857C12.6454 41.9821 12.6051 42.0089 12.5916 42.0491C10.3748 47.2558 7.72798 53.7609 6.2232 58.3252C6.19633 58.3921 6.25007 58.4591 6.31725 58.4591H9.82392C10.2539 58.4591 10.5898 58.8071 10.5898 59.222C10.5898 59.6503 10.2404 59.9849 9.82392 59.9849H5.7664C5.72609 59.9849 5.67235 60.0117 5.65891 60.0653C5.41707 60.9085 5.22898 61.6313 5.12149 62.2336C4.66469 64.6161 4.79904 67.6947 6.54566 67.5475C6.70688 67.5341 27.1692 67.4805 27.2901 67.4672C27.6663 67.4002 27.7334 66.8247 27.7334 66.4097C27.7334 65.5397 27.0214 64.8169 26.1346 64.8169H12.1617C12.0945 64.8169 12.0408 64.75 12.0677 64.6831C13.6665 59.8243 15.1578 55.8758 17.0522 51.7666C17.0791 51.6996 17.0388 51.6193 16.9582 51.6193H11.369C10.9391 51.6193 10.6032 51.2713 10.6032 50.8564C10.6032 50.4281 10.9525 50.0934 11.369 50.0934C11.369 50.0934 20.8679 50.1871 20.9754 50.1738C21.3516 50.1068 21.4188 49.5313 21.4188 49.1163C21.4188 48.2463 20.7067 47.5235 19.8199 47.5235H19.2691C19.1885 47.5235 19.1347 47.4432 19.175 47.3763C20.0618 45.6362 21.0426 43.8293 22.1577 41.8483C22.8429 40.6303 23.1251 39.4791 23.0982 38.4619C23.0982 38.4083 23.0445 38.3548 22.9907 38.3548H18.1136C17.6837 38.3548 17.3478 38.0068 17.3478 37.5919C17.3478 37.1769 17.6971 36.8289 18.1136 36.8289C18.1136 36.8289 29.7891 36.8557 29.8966 36.8289C30.2728 36.762 30.3399 36.2668 30.3399 35.8518C30.3399 34.9818 29.6279 34.259 28.7411 34.259H19.0676C17.1463 34.1385 15.44 35.4637 14.2845 38.0737C13.9889 38.7564 13.653 39.5059 13.3172 40.2956C13.2903 40.3626 13.344 40.4429 13.4112 40.4429L16.3267 40.4563Z" fill="#1F2665"/>
<path d="M106.465 74.4942H104.248C104.154 74.4942 104.1 74.3737 104.181 74.3068C109.125 70.2378 113.478 65.2586 115.252 59.677C115.279 59.6101 115.225 59.5432 115.144 59.5432H109.313C108.883 59.5432 108.548 59.1952 108.548 58.7802C108.548 58.3653 108.897 58.0173 109.313 58.0173H118.584C118.705 58.0173 119.041 57.9504 119.094 57.87C119.256 57.6291 119.35 57.348 119.35 57.0402C119.35 56.1702 118.638 55.4474 117.751 55.4474H116.152C116.098 55.4474 116.045 55.3938 116.045 55.3403C116.085 54.6041 116.085 53.8679 116.031 53.1184C115.816 50.2808 115.064 48.1124 113.975 46.4794C113.881 46.3322 113.707 46.2519 113.532 46.2519H101.978C101.548 46.2519 101.212 45.9039 101.212 45.4889C101.212 45.0606 101.561 44.726 101.978 44.726H121.916C122.037 44.726 122.373 44.6725 122.413 44.6055C122.588 44.3646 122.682 44.0701 122.682 43.7623C122.682 42.8923 121.97 42.1695 121.083 42.1695H106.438C106.438 42.1695 101.803 41.8884 96.2008 43.3473C96.1067 43.3741 96.0261 43.267 96.0933 43.1867C99.5731 39.2917 104.718 33.3889 106.075 31.8898C107.526 30.2434 108.198 28.3695 108.144 26.7232C108.144 26.6697 108.091 26.6161 108.037 26.6161H102.609C102.179 26.6161 101.843 26.2681 101.843 25.8532C101.843 25.4248 102.193 25.0902 102.609 25.0902H122.547C122.668 25.0902 123.004 25.0367 123.044 24.9698C123.219 24.7288 123.313 24.4344 123.313 24.1265C123.313 23.2565 122.601 22.5337 121.714 22.5337H103.348C103.24 22.5337 103.133 22.5471 103.026 22.5738C101.306 22.7746 99.6134 23.8588 98.2699 25.8666C97.7996 26.576 96.7919 28.0082 95.5021 29.8419C95.4484 29.9088 95.5021 30.0025 95.5828 30.0025H99.7612C100.191 30.0025 100.527 30.3505 100.527 30.7655C100.527 31.1804 100.177 31.5284 99.7612 31.5284H94.3467C94.3064 31.5284 94.2795 31.5418 94.2661 31.5686C91.0953 36.0124 86.89 41.8482 84.1223 45.6094C84.0685 45.6763 84.1223 45.77 84.2029 45.77H87.3065C87.7364 45.77 88.0723 46.118 88.0723 46.533C88.0723 46.9479 87.723 47.2959 87.3065 47.2959H82.9131C82.8862 47.2959 82.8459 47.3093 82.8325 47.3361C82.0935 48.3399 81.5561 49.036 81.3277 49.3037C80.226 50.5886 80.1319 52.3287 80.75 53.801C80.7634 53.8412 80.8037 53.8679 80.844 53.8679H86.0301C86.46 53.8679 86.7959 54.2159 86.7959 54.6309C86.7959 55.0592 86.4466 55.3938 86.0301 55.3938H82.0801C81.986 55.3938 81.9323 55.5143 82.0129 55.5812C83.0474 56.5048 84.5119 56.9866 86.1913 56.5449C89.0128 55.7954 100.795 47.6573 105.86 50.5886C106.613 51.0303 107.137 51.5925 107.473 52.2751C107.486 52.3153 107.526 52.3287 107.567 52.3287H110.227C110.657 52.3287 110.993 52.6767 110.993 53.0916C110.993 53.5199 110.643 53.8546 110.227 53.8546H107.983C107.929 53.8546 107.876 53.9081 107.876 53.9616C108.024 57.0268 105.632 61.1895 102.327 64.6696C102.26 64.7365 102.313 64.8436 102.407 64.8436H107.473C107.903 64.8436 108.238 65.1916 108.238 65.6066C108.238 66.0215 107.889 66.3695 107.473 66.3695H100.607C100.58 66.3695 100.553 66.3829 100.54 66.3963C100.07 66.8112 99.5865 67.2262 99.0894 67.6009C95.5424 70.3716 90.5176 73.7045 85.5867 76.0067C85.4793 76.0602 85.5196 76.2075 85.627 76.2075H92.6673C93.0972 76.2075 93.4331 76.5555 93.4331 76.9704C93.4331 77.3853 93.0838 77.7334 92.6673 77.7334H81.2068H81.1933C80.1857 78.0546 79.2183 78.3089 78.2778 78.4829C76.8537 78.7372 72.8902 78.2955 72.5812 81.1064C72.3528 83.2078 74.3547 84.9345 77.5523 85.577C77.5926 85.5904 77.6329 85.5636 77.6598 85.5368C77.8076 85.3494 78.0226 85.229 78.2644 85.229H98.2161C98.337 85.229 98.6729 85.1754 98.7267 85.0951C98.8879 84.8542 98.9954 84.5597 98.9954 84.2518C98.9954 83.3818 98.2833 82.659 97.3965 82.659H91.7133C91.6058 82.659 91.5655 82.5118 91.6596 82.4716C93.6346 81.4544 95.8246 80.1962 98.0683 78.7506C98.1489 78.6971 98.0549 78.59 98.0146 78.5766C97.6115 78.4294 97.2488 78.2286 97.2488 77.8137C97.2488 77.3854 97.5981 77.0507 98.0146 77.0507H107.285C107.405 77.0507 107.728 76.9972 107.782 76.9303C107.956 76.6893 108.05 76.3949 108.05 76.0736C108.064 75.2036 107.338 74.4942 106.465 74.4942Z" fill="#1F2665"/>
<path d="M175.511 0.100387H157.037C155.76 -0.0334624 154.511 -0.0334624 153.355 0.100387C149.177 0.582247 145.348 2.13491 142.002 4.91898C141.895 5.01268 141.976 5.28038 142.123 5.28038C144.407 5.28038 148.29 5.28038 148.29 5.28038C148.72 5.28038 149.056 5.62839 149.056 6.04332C149.056 6.47164 148.707 6.80626 148.29 6.80626C148.29 6.80626 142.164 6.80626 140 6.80626C139.987 6.80626 139.947 6.81965 139.933 6.83303C136.991 9.93835 134.519 14.1412 132.638 19.5622C132.611 19.6558 132.692 19.8432 132.772 19.8432C134.116 19.8299 134.586 19.8432 134.586 19.8432C135.016 19.8432 135.352 20.1912 135.352 20.6062C135.352 21.0211 135.002 21.3691 134.586 21.3691C134.586 21.3691 133.35 21.3691 132.181 21.3691C132.127 21.3691 132.006 21.4361 132.006 21.4762C131.67 22.5872 131.348 23.7383 131.052 24.9429C130.542 27.0042 130.072 29.0655 129.642 31.1134C129.628 31.1803 129.709 31.3008 129.763 31.3008C131.872 31.3008 134.828 31.3008 134.828 31.3008C135.258 31.3008 135.594 31.6488 135.594 32.0637C135.594 32.4921 135.244 32.8267 134.828 32.8267C134.828 32.8267 131.173 32.8267 129.44 32.8267C129.373 32.8267 129.252 32.9338 129.252 33.0007C127.479 41.5269 126.256 49.6114 125.624 56.3039C125.611 56.4244 125.705 56.4512 125.745 56.4512C126.001 56.4779 126.525 56.4512 126.78 56.4512C127.21 56.4378 127.546 56.7992 127.546 57.2141C127.546 57.6291 127.196 57.9771 126.78 57.9771C126.78 57.9771 123.958 57.9101 123.018 57.9771C122.978 57.9771 122.857 58.0038 122.843 58.0172C120.532 59.0479 118.154 60.8414 116.932 63.8932C116.905 63.9601 116.959 64.0405 117.026 64.0405C119.175 64.0405 127.559 64.0405 127.559 64.0405C127.989 64.0405 128.325 64.3885 128.325 64.8034C128.325 65.2183 127.976 65.5663 127.559 65.5663C127.559 65.5663 119.458 65.5663 116.502 65.5663C116.448 65.5663 116.394 65.6065 116.381 65.66C116.22 66.3962 116.112 67.1993 116.085 68.0693C115.911 72.6872 117.899 75.9263 121.997 75.9799C124.147 75.9933 127.21 75.4578 129.736 71.6833C129.789 71.603 129.682 71.4156 129.615 71.4156C128.204 71.4156 124.751 71.4156 124.751 71.4156C124.321 71.4156 123.985 71.0676 123.985 70.6526C123.985 70.2377 124.335 69.8897 124.751 69.8897H144.703C144.824 69.8897 145.16 69.8228 145.213 69.7558C145.375 69.5149 145.469 69.2338 145.469 68.926V68.8189C145.469 68.0024 144.797 67.3332 143.977 67.3332H131.845C132.651 65.0176 133.31 62.0996 133.74 58.4188C134.25 54.0017 134.908 48.1793 135.916 42.0757H130.327H129.104C128.674 42.0757 128.338 41.7277 128.338 41.3128C128.338 40.8978 128.688 40.5498 129.104 40.5498H130.327H138.375H139.597C139.718 40.5498 140.068 40.4695 140.135 40.3758C140.283 40.1483 140.377 39.8672 140.377 39.5727V39.4656C140.377 38.6491 139.705 37.9799 138.885 37.9799H137.663H136.642C137.381 34.0982 138.281 30.1898 139.382 26.509C139.396 26.4554 139.315 26.3617 139.262 26.3617C138.738 26.3617 137.784 26.3617 137.784 26.3617C137.354 26.3617 137.018 26.0137 137.018 25.5988C137.018 25.1705 137.367 24.8358 137.784 24.8358C137.784 24.8358 144.743 24.8358 147.054 24.8358C147.175 24.8358 147.484 24.8091 147.524 24.7555C147.712 24.5012 147.833 24.1934 147.833 23.8587V23.7517C147.833 22.9352 147.162 22.2659 146.342 22.2659H140.807C141.693 19.8968 142.701 17.6883 143.83 15.734C143.937 15.56 143.816 15.1986 143.682 15.1986C142.258 15.1986 138.093 15.1986 138.093 15.1986C137.663 15.1986 137.327 14.8506 137.327 14.4357C137.327 14.0074 137.676 13.6728 138.093 13.6728H158.031C158.152 13.6728 158.488 13.6192 158.541 13.5389C158.703 13.298 158.797 13.0169 158.797 12.6957V12.5886C158.797 11.7721 158.125 11.1028 157.305 11.1028H147.229C149.473 8.80063 152.106 7.38182 155.183 7.23458C160.087 7.00704 165.004 12.883 168.242 9.6305C169.169 8.69355 168.9 6.4181 166.764 4.23635C166.751 4.22296 166.657 4.18281 166.616 4.18281C164.063 4.18281 156.271 4.18281 156.271 4.18281C155.841 4.18281 155.505 3.8348 155.505 3.41986C155.505 3.00493 155.854 2.65692 156.271 2.65692H176.209C176.33 2.65692 176.666 2.60338 176.72 2.52307C176.881 2.28214 176.988 1.98767 176.988 1.67982V1.57274C177.002 0.769637 176.33 0.100387 175.511 0.100387Z" fill="#1F2665"/>
<path d="M85.0086 35.0354H78.4655C78.0893 33.2552 77.1219 32.1175 75.4962 31.8096C71.1969 31.0065 69.5846 34.6071 68.2545 40.9649C68.1604 41.42 68.0664 41.8751 67.9589 42.3302H73.1988C73.6287 42.3302 73.9646 42.6782 73.9646 43.0932C73.9646 43.5215 73.6153 43.8561 73.1988 43.8561H67.623C65.8361 51.8335 63.6058 59.6905 61.9264 65.3925H64.6806C65.1106 65.3925 65.4465 65.7405 65.4465 66.1555C65.4465 66.5704 65.0971 66.9184 64.6806 66.9184H61.4696C60.4082 70.4922 59.6289 73.0086 59.4542 73.8251C58.675 77.4256 58.5272 80.3837 60.1529 80.8656C62.1682 81.4679 63.9551 81.1734 65.9436 77.4792C66.4004 76.6359 67.1662 74.8156 68.0933 72.4063H67.1797C66.7497 72.4063 66.4138 72.0583 66.4138 71.6433C66.4138 71.2284 66.7631 70.8804 67.1797 70.8804C67.1797 70.8804 78.2102 70.8938 79.0298 70.8804C79.3791 70.8804 80.239 68.3238 77.9146 68.3238C75.8456 68.3238 69.6383 68.3238 69.6383 68.3238C70.5385 65.861 71.5059 63.1171 72.4598 60.2795H68.2679C67.838 60.2795 67.5021 59.9315 67.5021 59.5165C67.5021 59.0882 67.8514 58.7536 68.2679 58.7536H77.5384C77.8877 58.7536 78.0624 58.6197 78.1296 58.4993C78.2505 58.2851 78.3177 58.0442 78.3177 57.7899V57.5489C78.3177 56.786 77.6996 56.1703 76.9338 56.1703H73.8302C75.644 50.6021 77.2697 45.1143 78.1296 41.2594C78.2908 40.5099 78.4117 39.8138 78.5058 39.1446H76.262C75.8993 39.1446 75.5903 38.8501 75.5903 38.4753V38.2746C75.5903 37.9132 75.8859 37.6053 76.262 37.6053H85.64C85.761 37.6053 86.0834 37.5652 86.1237 37.5116C86.2984 37.2707 86.4059 36.9628 86.4059 36.6416V36.4408C86.4059 35.6511 85.7744 35.0354 85.0086 35.0354Z" fill="#1F2665"/>
<path d="M39.9001 100.204C39.8209 100.204 39.7537 100.18 39.6983 100.133C39.6508 100.078 39.627 100.01 39.627 99.9312V99.1124C39.627 99.0333 39.6508 98.966 39.6983 98.9107C39.7537 98.8553 39.8209 98.8276 39.9001 98.8276H40.7191C40.7982 98.8276 40.8615 98.8553 40.909 98.9107C40.9644 98.966 40.9921 99.0333 40.9921 99.1124V99.9312C40.9921 100.01 40.9644 100.078 40.909 100.133C40.8615 100.18 40.7982 100.204 40.7191 100.204H39.9001Z" fill="#1F2665"/>
<path d="M46.6874 93.4285C46.7745 93.4285 46.8417 93.4522 46.8892 93.4997C46.9367 93.5471 46.9604 93.6144 46.9604 93.7014V94.0811C46.9604 94.1602 46.9327 94.2235 46.8773 94.271C46.8299 94.3184 46.7665 94.3422 46.6874 94.3422H45.9871C45.8763 94.4608 45.7853 94.6467 45.7141 94.8999C45.6508 95.153 45.6191 95.4378 45.6191 95.7542V99.943C45.6191 100.022 45.5914 100.085 45.536 100.133C45.4806 100.18 45.4134 100.204 45.3342 100.204H44.8357C44.7565 100.204 44.6932 100.18 44.6458 100.133C44.5983 100.085 44.5745 100.022 44.5745 99.943V95.6831C44.5745 95.3587 44.6022 95.0818 44.6576 94.8524C44.713 94.623 44.7882 94.4529 44.8832 94.3422H41.607C41.5279 94.3422 41.4606 94.3184 41.4052 94.271C41.3578 94.2235 41.334 94.1602 41.334 94.0811V93.7014C41.334 93.6223 41.3578 93.559 41.4052 93.5115C41.4606 93.4562 41.5279 93.4285 41.607 93.4285H46.6874Z" fill="#1F2665"/>
<path d="M48.7018 100.204C48.6226 100.204 48.5554 100.18 48.5 100.133C48.4525 100.078 48.4287 100.01 48.4287 99.9312V93.7014C48.4287 93.6144 48.4525 93.5471 48.5 93.4997C48.5554 93.4522 48.6226 93.4285 48.7018 93.4285H50.9808C52.0016 93.4285 52.7613 93.6737 53.2599 94.1642C53.7584 94.6467 54.0077 95.3745 54.0077 96.3476V99.9312C54.0077 100.01 53.98 100.078 53.9246 100.133C53.8771 100.18 53.8138 100.204 53.7347 100.204H53.2361C53.157 100.204 53.0897 100.18 53.0343 100.133C52.9868 100.078 52.9631 100.01 52.9631 99.9312V96.3832C52.9631 95.0225 52.2826 94.3422 50.9215 94.3422H49.4733V99.9312C49.4733 100.01 49.4456 100.078 49.3902 100.133C49.3427 100.18 49.2794 100.204 49.2003 100.204H48.7018Z" fill="#1F2665"/>
<path d="M55.9791 97.4511C55.9 97.4511 55.8327 97.4274 55.7773 97.3799C55.7298 97.3245 55.7061 97.2573 55.7061 97.1782V93.7014C55.7061 93.6144 55.7298 93.5471 55.7773 93.4997C55.8327 93.4522 55.9 93.4285 55.9791 93.4285H56.5014C56.5805 93.4285 56.6438 93.4562 56.6913 93.5115C56.7467 93.559 56.7744 93.6223 56.7744 93.7014V97.1782C56.7744 97.2573 56.7467 97.3245 56.6913 97.3799C56.6438 97.4274 56.5805 97.4511 56.5014 97.4511H55.9791Z" fill="#1F2665"/>
<path d="M58.5131 100.204C58.434 100.204 58.3707 100.18 58.3232 100.133C58.2757 100.078 58.252 100.01 58.252 99.9312V99.5515C58.252 99.4723 58.2757 99.4091 58.3232 99.3616C58.3707 99.3062 58.434 99.2785 58.5131 99.2785H61.9435V96.3832C61.9435 95.0304 61.263 94.354 59.9019 94.354H58.6318C58.5527 94.354 58.4894 94.3303 58.4419 94.2828C58.3944 94.2275 58.3707 94.1602 58.3707 94.0811V93.7014C58.3707 93.6223 58.3944 93.559 58.4419 93.5115C58.4894 93.4562 58.5527 93.4285 58.6318 93.4285H59.9612C61.9871 93.4285 63 94.3975 63 96.3357V99.2785H63.451C63.5302 99.2785 63.5935 99.3062 63.641 99.3616C63.6884 99.4091 63.7122 99.4723 63.7122 99.5515V99.9312C63.7122 100.01 63.6884 100.078 63.641 100.133C63.5935 100.18 63.5302 100.204 63.451 100.204H58.5131Z" fill="#1F2665"/>
<path d="M67.6217 101.094C67.5505 101.094 67.4951 101.07 67.4555 101.023C67.4238 100.975 67.4159 100.916 67.4318 100.845L67.6929 99.1717C67.7246 98.9423 67.8353 98.8276 68.0253 98.8276H68.7849C68.8403 98.8276 68.8878 98.8513 68.9274 98.8988C68.9669 98.9384 68.9867 98.9819 68.9867 99.0293C68.9867 99.0926 68.9709 99.1599 68.9393 99.2311L68.322 100.821C68.2508 101.003 68.14 101.094 67.9896 101.094H67.6217Z" fill="#1F2665"/>
<path d="M73.4988 100.204C73.4197 100.204 73.3524 100.18 73.297 100.133C73.2496 100.078 73.2258 100.01 73.2258 99.9312V96.3832C73.2258 95.0225 72.5453 94.3422 71.1842 94.3422H69.6529C69.5738 94.3422 69.5065 94.3184 69.4511 94.271C69.4037 94.2235 69.3799 94.1602 69.3799 94.0811V93.7014C69.3799 93.6223 69.4037 93.559 69.4511 93.5115C69.5065 93.4562 69.5738 93.4285 69.6529 93.4285H71.2554C73.2654 93.4285 74.2704 94.3936 74.2704 96.3238V99.9312C74.2704 100.01 74.2427 100.078 74.1873 100.133C74.1398 100.18 74.0765 100.204 73.9974 100.204H73.4988Z" fill="#1F2665"/>
<path d="M82.5087 93.4285C82.5878 93.4285 82.6511 93.4562 82.6986 93.5115C82.754 93.559 82.7817 93.6223 82.7817 93.7014V97.0002C82.7817 97.6647 82.6432 98.2501 82.3662 98.7564C82.0972 99.2548 81.7134 99.6385 81.2148 99.9074C80.7242 100.168 80.1584 100.291 79.5174 100.275H78.639C78.1246 100.275 77.6617 100.157 77.2502 99.9193C76.8387 99.682 76.5143 99.3497 76.2769 98.9225C76.0474 98.4874 75.9326 97.9891 75.9326 97.4274V93.7014C75.9326 93.6144 75.9564 93.5471 76.0039 93.4997C76.0593 93.4522 76.1265 93.4285 76.2056 93.4285H76.6686C76.7477 93.4285 76.811 93.4562 76.8585 93.5115C76.9139 93.559 76.9416 93.6223 76.9416 93.7014L76.9772 97.0714C77.6973 97.016 78.1959 96.8222 78.4728 96.49C78.7577 96.1577 78.9002 95.7226 78.9002 95.1847V93.7014C78.9002 93.6223 78.9239 93.559 78.9714 93.5115C79.0268 93.4562 79.094 93.4285 79.1732 93.4285H79.6361C79.7152 93.4285 79.7785 93.4562 79.826 93.5115C79.8814 93.559 79.9091 93.6223 79.9091 93.7014V95.2321C79.9091 95.9916 79.6677 96.6165 79.185 97.107C78.7023 97.5975 77.9941 97.8664 77.0603 97.9139C77.1869 98.3727 77.4204 98.7287 77.7606 98.9819C78.1088 99.2271 78.5243 99.3497 79.007 99.3497H79.3868C80.1386 99.3576 80.7242 99.1401 81.1436 98.6971C81.563 98.2541 81.7727 97.6647 81.7727 96.929V93.7014C81.7727 93.6223 81.7964 93.559 81.8439 93.5115C81.8993 93.4562 81.9666 93.4285 82.0457 93.4285H82.5087Z" fill="#1F2665"/>
<path d="M84.7174 100.204C84.6382 100.204 84.571 100.18 84.5156 100.133C84.4681 100.078 84.4443 100.01 84.4443 99.9312V93.7014C84.4443 93.6144 84.4681 93.5471 84.5156 93.4997C84.571 93.4522 84.6382 93.4285 84.7174 93.4285H85.2396C85.3188 93.4285 85.3821 93.4562 85.4296 93.5115C85.485 93.559 85.5126 93.6223 85.5126 93.7014V99.9312C85.5126 100.01 85.485 100.078 85.4296 100.133C85.3821 100.18 85.3188 100.204 85.2396 100.204H84.7174Z" fill="#1F2665"/>
<path d="M87.6265 100.204C87.5474 100.204 87.4801 100.18 87.4247 100.133C87.3772 100.078 87.3535 100.01 87.3535 99.9312V99.5396C87.3535 99.4526 87.3772 99.3853 87.4247 99.3379C87.4801 99.2904 87.5474 99.2667 87.6265 99.2667H89.3239C90.0124 99.2667 90.5188 99.0926 90.8433 98.7445C91.1677 98.3965 91.3458 97.8902 91.3774 97.2257C91.3854 97.1149 91.3893 96.9765 91.3893 96.8103C91.3893 96.6521 91.3854 96.5176 91.3774 96.4069C91.3537 95.7345 91.1757 95.2282 90.8433 94.888C90.5188 94.5399 90.0124 94.3659 89.3239 94.3659H87.6265C87.5474 94.3659 87.4801 94.3422 87.4247 94.2947C87.3772 94.2393 87.3535 94.1721 87.3535 94.093V93.7014C87.3535 93.6144 87.3772 93.5471 87.4247 93.4997C87.4801 93.4522 87.5474 93.4285 87.6265 93.4285H89.3833C90.3883 93.4285 91.1321 93.6816 91.6148 94.1879C92.1055 94.6863 92.3666 95.4101 92.3983 96.3594C92.4062 96.4702 92.4101 96.6205 92.4101 96.8103C92.4101 97.0002 92.4062 97.1545 92.3983 97.2731C92.3666 98.2224 92.1055 98.9502 91.6148 99.4565C91.1321 99.9549 90.3883 100.204 89.3833 100.204H87.6265Z" fill="#1F2665"/>
<path d="M95.543 93.4285C96.2631 93.4285 96.8329 93.5313 97.2523 93.737C97.6796 93.9427 97.9882 94.271 98.1782 94.7219C98.3681 95.1728 98.463 95.774 98.463 96.5256C98.463 97.5381 98.2138 98.3292 97.7152 98.8988C97.2167 99.4605 96.5678 99.8758 95.7685 100.145L95.27 100.311C95.2542 100.319 95.2265 100.323 95.1869 100.323C95.1315 100.323 95.0801 100.303 95.0326 100.263C94.993 100.224 94.9733 100.168 94.9733 100.097V99.5752C94.9733 99.4328 95.0603 99.326 95.2344 99.2548L95.6973 99.0768C96.2433 98.8711 96.6628 98.5745 96.9555 98.1868C97.2483 97.7992 97.3947 97.2296 97.3947 96.4781C97.3947 95.9481 97.3314 95.5327 97.2048 95.2321C97.0782 94.9236 96.8685 94.7021 96.5757 94.5676C96.2908 94.4331 95.8952 94.3659 95.3887 94.3659H94.9851L93.8931 94.354C93.8139 94.354 93.7467 94.3303 93.6913 94.2828C93.6438 94.2354 93.6201 94.1721 93.6201 94.093V92.052C93.6201 91.9729 93.6438 91.9096 93.6913 91.8621C93.7467 91.8067 93.8139 91.7791 93.8931 91.7791H94.3679C94.447 91.7791 94.5103 91.8067 94.5578 91.8621C94.6053 91.9096 94.629 91.9729 94.629 92.052V93.4285H95.543Z" fill="#1F2665"/>
<path d="M105.805 100.323C104.832 100.323 104.1 100.07 103.609 99.5633C103.127 99.0491 102.885 98.3134 102.885 97.3562V93.7014C102.885 93.6144 102.909 93.5471 102.957 93.4997C103.012 93.4522 103.079 93.4285 103.158 93.4285H106.007C107.028 93.4285 107.76 93.6579 108.203 94.1167C108.646 94.5755 108.888 95.2796 108.927 96.2289C108.935 96.308 108.939 96.5216 108.939 96.8697C108.939 97.2178 108.935 97.4313 108.927 97.5105C108.903 98.4518 108.646 99.1559 108.156 99.6226C107.665 100.089 106.882 100.323 105.805 100.323ZM105.793 99.3853C106.537 99.3853 107.071 99.2311 107.396 98.9225C107.72 98.6061 107.891 98.1156 107.906 97.4511C107.914 97.372 107.918 97.1782 107.918 96.8697C107.918 96.5612 107.914 96.3673 107.906 96.2882C107.891 95.6554 107.709 95.1728 107.36 94.8405C107.02 94.5083 106.549 94.3422 105.948 94.3422H103.882V97.3562C103.882 98.0128 104.041 98.5151 104.357 98.8632C104.682 99.2113 105.16 99.3853 105.793 99.3853Z" fill="#1F2665"/>
<path d="M113.733 99.9669C113.733 100.038 113.706 100.097 113.65 100.145C113.603 100.184 113.544 100.204 113.472 100.204H110.303C110.224 100.204 110.157 100.18 110.101 100.133C110.054 100.078 110.03 100.01 110.03 99.9313V99.5516C110.03 99.4724 110.054 99.4092 110.101 99.3617C110.157 99.3063 110.224 99.2786 110.303 99.2786H112.641L112.451 96.2646C112.412 95.7504 112.368 95.3746 112.321 95.1373C112.281 94.8921 112.186 94.6943 112.036 94.544C111.886 94.3937 111.652 94.3185 111.336 94.3185H110.849C110.77 94.3185 110.703 94.2948 110.647 94.2473C110.6 94.1999 110.576 94.1366 110.576 94.0575V93.6778C110.576 93.5986 110.6 93.5354 110.647 93.4879C110.703 93.4325 110.77 93.4048 110.849 93.4048H111.336C111.905 93.4048 112.341 93.5195 112.641 93.749C112.95 93.9705 113.16 94.279 113.271 94.6745C113.389 95.0701 113.468 95.5882 113.508 96.229L113.733 99.9313V99.9669Z" fill="#1F2665"/>
<path d="M115.517 100.204C115.438 100.204 115.371 100.18 115.315 100.133C115.268 100.078 115.244 100.01 115.244 99.9312V99.5396C115.244 99.4526 115.268 99.3853 115.315 99.3379C115.371 99.2904 115.438 99.2667 115.517 99.2667H117.214C117.903 99.2667 118.409 99.0926 118.734 98.7445C119.058 98.3965 119.236 97.8902 119.268 97.2257C119.276 97.1149 119.28 96.9765 119.28 96.8103C119.28 96.6521 119.276 96.5176 119.268 96.4069C119.244 95.7345 119.066 95.2282 118.734 94.888C118.409 94.5399 117.903 94.3659 117.214 94.3659H115.517C115.438 94.3659 115.371 94.3422 115.315 94.2947C115.268 94.2393 115.244 94.1721 115.244 94.093V93.7014C115.244 93.6144 115.268 93.5471 115.315 93.4997C115.371 93.4522 115.438 93.4285 115.517 93.4285H117.274C118.279 93.4285 119.023 93.6816 119.505 94.1879C119.996 94.6863 120.257 95.4101 120.289 96.3594C120.297 96.4702 120.301 96.6205 120.301 96.8103C120.301 97.0002 120.297 97.1545 120.289 97.2731C120.257 98.2224 119.996 98.9502 119.505 99.4565C119.023 99.9549 118.279 100.204 117.274 100.204H115.517Z" fill="#1F2665"/>
<path d="M122.064 97.4511C121.985 97.4511 121.918 97.4274 121.863 97.3799C121.815 97.3245 121.791 97.2573 121.791 97.1782V93.7014C121.791 93.6144 121.815 93.5471 121.863 93.4997C121.918 93.4522 121.985 93.4285 122.064 93.4285H122.587C122.666 93.4285 122.729 93.4562 122.777 93.5115C122.832 93.559 122.86 93.6223 122.86 93.7014V97.1782C122.86 97.2573 122.832 97.3245 122.777 97.3799C122.729 97.4274 122.666 97.4511 122.587 97.4511H122.064Z" fill="#1F2665"/>
<path d="M129.405 100.204C129.326 100.204 129.259 100.18 129.204 100.133C129.156 100.078 129.132 100.01 129.132 99.9312V96.3832C129.132 95.0225 128.456 94.3422 127.103 94.3422H124.895C124.816 94.3422 124.748 94.3184 124.693 94.271C124.645 94.2235 124.622 94.1602 124.622 94.0811V93.7014C124.622 93.6144 124.645 93.5471 124.693 93.4997C124.748 93.4522 124.816 93.4285 124.895 93.4285H127.162C129.172 93.4285 130.177 94.4015 130.177 96.3476V99.9312C130.177 100.01 130.149 100.078 130.094 100.133C130.046 100.18 129.983 100.204 129.904 100.204H129.405ZM124.895 100.204C124.816 100.204 124.748 100.18 124.693 100.133C124.645 100.078 124.622 100.01 124.622 99.9312V95.9441C124.622 95.865 124.645 95.8017 124.693 95.7542C124.748 95.6989 124.816 95.6712 124.895 95.6712H125.393C125.472 95.6712 125.536 95.6989 125.583 95.7542C125.639 95.8017 125.666 95.865 125.666 95.9441V99.9312C125.666 100.01 125.639 100.078 125.583 100.133C125.536 100.18 125.472 100.204 125.393 100.204H124.895Z" fill="#1F2665"/>
<path d="M133.46 93.4285C134.18 93.4285 134.75 93.5313 135.17 93.737C135.597 93.9427 135.906 94.271 136.095 94.7219C136.285 95.1728 136.38 95.774 136.38 96.5256C136.38 97.5381 136.131 98.3292 135.632 98.8988C135.134 99.4605 134.485 99.8758 133.686 100.145L133.187 100.311C133.171 100.319 133.144 100.323 133.104 100.323C133.049 100.323 132.997 100.303 132.95 100.263C132.91 100.224 132.891 100.168 132.891 100.097V99.5752C132.891 99.4328 132.978 99.326 133.152 99.2548L133.615 99.0768C134.161 98.8711 134.58 98.5745 134.873 98.1868C135.166 97.7992 135.312 97.2296 135.312 96.4781C135.312 95.9481 135.249 95.5327 135.122 95.2321C134.995 94.9236 134.786 94.7021 134.493 94.5676C134.208 94.4331 133.812 94.3659 133.306 94.3659H132.902L131.81 94.354C131.731 94.354 131.664 94.3303 131.609 94.2828C131.561 94.2354 131.537 94.1721 131.537 94.093V92.052C131.537 91.9729 131.561 91.9096 131.609 91.8621C131.664 91.8067 131.731 91.7791 131.81 91.7791H132.285C132.364 91.7791 132.428 91.8067 132.475 91.8621C132.523 91.9096 132.546 91.9729 132.546 92.052V93.4285H133.46Z" fill="#1F2665"/>
</svg>
