<svg width="94" height="62" viewBox="0 0 94 62" fill="none" xmlns="http://www.w3.org/2000/svg">
<path d="M7.70361 18.624H14.5516V24H0.599609V1.34396H7.70361V18.624Z" fill="white"/>
<path d="M27.8271 24.224C25.6938 24.224 23.7311 23.7226 21.9391 22.72C20.1684 21.7173 18.7604 20.3306 17.7151 18.56C16.6698 16.7893 16.1471 14.7946 16.1471 12.576C16.1471 10.3573 16.6698 8.36263 17.7151 6.59196C18.7604 4.82129 20.1684 3.44529 21.9391 2.46396C23.7311 1.46129 25.6938 0.959961 27.8271 0.959961C29.9604 0.959961 31.9124 1.46129 33.6831 2.46396C35.4538 3.44529 36.8511 4.82129 37.8751 6.59196C38.9204 8.36263 39.4431 10.3573 39.4431 12.576C39.4431 14.7946 38.9204 16.7893 37.8751 18.56C36.8511 20.3306 35.4431 21.7173 33.6511 22.72C31.8804 23.7226 29.9391 24.224 27.8271 24.224ZM27.8271 17.6C29.2351 17.6 30.3231 17.152 31.0911 16.256C31.8591 15.3386 32.2431 14.112 32.2431 12.576C32.2431 11.0186 31.8591 9.79196 31.0911 8.89596C30.3231 7.97863 29.2351 7.51996 27.8271 7.51996C26.3978 7.51996 25.2991 7.97863 24.5311 8.89596C23.7631 9.79196 23.3791 11.0186 23.3791 12.576C23.3791 14.112 23.7631 15.3386 24.5311 16.256C25.2991 17.152 26.3978 17.6 27.8271 17.6Z" fill="white"/>
<path d="M55.8939 9.08796C55.6165 8.63996 55.2219 8.29863 54.7099 8.06396C54.1979 7.80796 53.5792 7.67996 52.8539 7.67996C51.4885 7.67996 50.4325 8.12796 49.6859 9.02396C48.9392 9.89863 48.5659 11.104 48.5659 12.64C48.5659 14.4106 48.9819 15.7333 49.8139 16.608C50.6459 17.4826 51.9259 17.92 53.6539 17.92C55.2965 17.92 56.6192 17.2586 57.6219 15.936H51.9579V10.912H63.5099V18.016C62.5285 19.7013 61.1739 21.152 59.4459 22.368C57.7179 23.5626 55.5312 24.16 52.8859 24.16C50.5392 24.16 48.4912 23.68 46.7419 22.72C45.0139 21.7386 43.6805 20.3733 42.7419 18.624C41.8245 16.8746 41.3659 14.88 41.3659 12.64C41.3659 10.4 41.8245 8.40529 42.7419 6.65596C43.6805 4.90663 45.0139 3.55196 46.7419 2.59196C48.4699 1.61063 50.4965 1.11996 52.8219 1.11996C55.7872 1.11996 58.1979 1.83463 60.0539 3.26396C61.9312 4.69329 63.0405 6.63463 63.3819 9.08796H55.8939Z" fill="white"/>
<path d="M77.1084 24.224C74.975 24.224 73.0124 23.7226 71.2204 22.72C69.4497 21.7173 68.0417 20.3306 66.9964 18.56C65.951 16.7893 65.4284 14.7946 65.4284 12.576C65.4284 10.3573 65.951 8.36263 66.9964 6.59196C68.0417 4.82129 69.4497 3.44529 71.2204 2.46396C73.0124 1.46129 74.975 0.959961 77.1084 0.959961C79.2417 0.959961 81.1937 1.46129 82.9644 2.46396C84.735 3.44529 86.1324 4.82129 87.1564 6.59196C88.2017 8.36263 88.7244 10.3573 88.7244 12.576C88.7244 14.7946 88.2017 16.7893 87.1564 18.56C86.1324 20.3306 84.7244 21.7173 82.9324 22.72C81.1617 23.7226 79.2204 24.224 77.1084 24.224ZM77.1084 17.6C78.5164 17.6 79.6044 17.152 80.3724 16.256C81.1404 15.3386 81.5244 14.112 81.5244 12.576C81.5244 11.0186 81.1404 9.79196 80.3724 8.89596C79.6044 7.97863 78.5164 7.51996 77.1084 7.51996C75.679 7.51996 74.5804 7.97863 73.8124 8.89596C73.0444 9.79196 72.6604 11.0186 72.6604 12.576C72.6604 14.112 73.0444 15.3386 73.8124 16.256C74.5804 17.152 75.679 17.6 77.1084 17.6Z" fill="white"/>
<path d="M16.5996 38.344V43.976H7.70361V47.112H14.1036V52.456H7.70361V61H0.599609V38.344H16.5996Z" fill="white"/>
<path d="M30.0459 61.224C27.9125 61.224 25.9499 60.7226 24.1579 59.72C22.3872 58.7173 20.9792 57.3306 19.9339 55.56C18.8885 53.7893 18.3659 51.7946 18.3659 49.576C18.3659 47.3573 18.8885 45.3626 19.9339 43.592C20.9792 41.8213 22.3872 40.4453 24.1579 39.464C25.9499 38.4613 27.9125 37.96 30.0459 37.96C32.1792 37.96 34.1312 38.4613 35.9019 39.464C37.6725 40.4453 39.0699 41.8213 40.0939 43.592C41.1392 45.3626 41.6619 47.3573 41.6619 49.576C41.6619 51.7946 41.1392 53.7893 40.0939 55.56C39.0699 57.3306 37.6619 58.7173 35.8699 59.72C34.0992 60.7226 32.1579 61.224 30.0459 61.224ZM30.0459 54.6C31.4539 54.6 32.5419 54.152 33.3099 53.256C34.0779 52.3386 34.4619 51.112 34.4619 49.576C34.4619 48.0186 34.0779 46.792 33.3099 45.896C32.5419 44.9786 31.4539 44.52 30.0459 44.52C28.6165 44.52 27.5179 44.9786 26.7499 45.896C25.9819 46.792 25.5979 48.0186 25.5979 49.576C25.5979 51.112 25.9819 52.3386 26.7499 53.256C27.5179 54.152 28.6165 54.6 30.0459 54.6Z" fill="white"/>
<path d="M51.3286 55.624H58.1766V61H44.2246V38.344H51.3286V55.624Z" fill="white"/>
<path d="M67.5161 38.344V61H60.4121V38.344H67.5161Z" fill="white"/>
<path d="M81.7646 61.224C79.6313 61.224 77.6686 60.7226 75.8766 59.72C74.1059 58.7173 72.6979 57.3306 71.6526 55.56C70.6073 53.7893 70.0846 51.7946 70.0846 49.576C70.0846 47.3573 70.6073 45.3626 71.6526 43.592C72.6979 41.8213 74.1059 40.4453 75.8766 39.464C77.6686 38.4613 79.6313 37.96 81.7646 37.96C83.8979 37.96 85.8499 38.4613 87.6206 39.464C89.3913 40.4453 90.7886 41.8213 91.8126 43.592C92.8579 45.3626 93.3806 47.3573 93.3806 49.576C93.3806 51.7946 92.8579 53.7893 91.8126 55.56C90.7886 57.3306 89.3806 58.7173 87.5886 59.72C85.8179 60.7226 83.8766 61.224 81.7646 61.224ZM81.7646 54.6C83.1726 54.6 84.2606 54.152 85.0286 53.256C85.7966 52.3386 86.1806 51.112 86.1806 49.576C86.1806 48.0186 85.7966 46.792 85.0286 45.896C84.2606 44.9786 83.1726 44.52 81.7646 44.52C80.3353 44.52 79.2366 44.9786 78.4686 45.896C77.7006 46.792 77.3166 48.0186 77.3166 49.576C77.3166 51.112 77.7006 52.3386 78.4686 53.256C79.2366 54.152 80.3353 54.6 81.7646 54.6Z" fill="white"/>
</svg>
