<svg width="152" height="140" viewBox="0 0 152 140" fill="none" xmlns="http://www.w3.org/2000/svg">
<path fill-rule="evenodd" clip-rule="evenodd" d="M76.8942 96.2924C103.044 91.4752 125.04 74.7366 125.04 48.1462C125.04 21.5558 103.484 0 76.8942 0C50.3038 0 28.748 21.5558 28.748 48.1462C28.748 55.5284 33.2525 64.329 37.4412 72.5126C43.4392 84.231 48.7897 94.6844 39.3401 97.8973C46.3488 101.88 64.6971 98.5392 76.8942 96.2924ZM78.9139 65.6267C77.9195 65.8635 76.6409 65.9818 75.0782 65.9818C71.9528 65.9818 69.301 65.674 67.1227 65.0584C64.9917 64.3955 63.1923 63.6615 61.7243 62.8565L58.5989 71.6644C59.2618 72.0432 60.0669 72.4457 61.0139 72.8719C62.0084 73.2981 63.1686 73.7006 64.4945 74.0795C65.8678 74.4583 67.4305 74.7661 69.1826 75.0029C70.9347 75.287 72.8999 75.4291 75.0782 75.4291C81.5658 75.4291 86.4196 74.1742 89.6397 71.6644C92.8598 69.1072 94.4699 65.532 94.4699 60.9386C94.4699 58.5709 94.1621 56.5583 93.5465 54.9009C92.9309 53.2435 91.9838 51.7992 90.7052 50.568C89.474 49.3367 87.9113 48.2713 86.0171 47.3715C84.1229 46.4244 81.8973 45.4774 79.3401 44.5303C78.1089 44.1041 76.9724 43.7016 75.9306 43.3227C74.9362 42.8965 74.0364 42.4467 73.2314 41.9731C72.4737 41.4522 71.8818 40.884 71.4556 40.2684C71.0294 39.6528 70.8163 38.8951 70.8163 37.9953C70.8163 36.48 71.3846 35.3672 72.5211 34.6569C73.705 33.8992 75.6228 33.5203 78.2747 33.5203C80.6424 33.5203 82.6549 33.8045 84.3124 34.3727C86.0171 34.8936 87.5561 35.5092 88.9294 36.2196L92.1258 27.4827C90.5631 26.6303 88.5743 25.8489 86.1592 25.1386C83.7441 24.4283 80.8793 24.0731 77.5644 24.0731C74.7705 24.0731 72.2606 24.4283 70.035 25.1386C67.8093 25.8016 65.9151 26.7723 64.3524 28.0509C62.7897 29.3295 61.5822 30.8922 60.7298 32.739C59.8774 34.5385 59.4512 36.5747 59.4512 38.8477C59.4512 41.1207 59.8538 43.0623 60.6588 44.6723C61.4638 46.235 62.5056 47.5846 63.7842 48.7211C65.0628 49.8103 66.5071 50.7337 68.1171 51.4914C69.7272 52.2017 71.3372 52.841 72.9473 53.4092C76.6409 54.6404 79.2454 55.8006 80.7608 56.8898C82.2761 57.9316 83.0338 59.2575 83.0338 60.8676C83.0338 61.6252 82.9154 62.3119 82.6786 62.9275C82.4419 63.5431 82.0157 64.0877 81.4001 64.5612C80.7844 64.9874 79.9557 65.3426 78.9139 65.6267Z" fill="#1F2665"/>
<path d="M6.46675 131.459C7.07998 131.459 7.58171 131.412 7.97194 131.318C8.38076 131.206 8.70596 131.066 8.94753 130.897C9.1891 130.71 9.35635 130.494 9.44926 130.251C9.54217 130.007 9.58863 129.736 9.58863 129.436C9.58863 128.799 9.29131 128.275 8.69667 127.863C8.10202 127.432 7.07998 126.973 5.63053 126.486C4.99872 126.261 4.36692 126.008 3.73511 125.727C3.1033 125.428 2.53653 125.062 2.0348 124.632C1.53307 124.182 1.12425 123.648 0.808344 123.03C0.492439 122.393 0.334487 121.625 0.334487 120.726C0.334487 119.827 0.501731 119.022 0.836218 118.31C1.1707 117.58 1.64456 116.961 2.25779 116.456C2.87101 115.95 3.61432 115.566 4.4877 115.304C5.36109 115.023 6.34596 114.882 7.44234 114.882C8.74312 114.882 9.86737 115.023 10.8151 115.304C11.7628 115.585 12.5433 115.894 13.1565 116.231L11.9022 119.687C11.3633 119.406 10.7593 119.162 10.0904 118.956C9.43997 118.732 8.65021 118.619 7.72108 118.619C6.68045 118.619 5.92786 118.769 5.46329 119.069C5.01731 119.35 4.79432 119.79 4.79432 120.389C4.79432 120.745 4.87794 121.045 5.04518 121.288C5.21242 121.532 5.44471 121.757 5.74203 121.963C6.05793 122.15 6.411 122.328 6.80124 122.496C7.21006 122.646 7.65604 122.805 8.13919 122.974C9.14265 123.349 10.016 123.723 10.7593 124.098C11.5026 124.454 12.1159 124.875 12.599 125.362C13.1007 125.849 13.4724 126.42 13.714 127.076C13.9555 127.732 14.0763 128.528 14.0763 129.464C14.0763 131.281 13.4445 132.695 12.1809 133.707C10.9173 134.699 9.01257 135.196 6.46675 135.196C5.61195 135.196 4.84077 135.139 4.15322 135.027C3.46566 134.933 2.85243 134.812 2.31354 134.662C1.79322 134.512 1.33795 134.353 0.947714 134.184C0.576061 134.016 0.260157 133.856 0 133.707L1.22645 130.223C1.80251 130.541 2.50865 130.831 3.34487 131.094C4.19967 131.337 5.2403 131.459 6.46675 131.459Z" fill="#1F2665"/>
<path d="M16.4463 127.413C16.4463 126.345 16.6135 125.343 16.948 124.407C17.3011 123.452 17.8028 122.627 18.4532 121.934C19.1036 121.223 19.8934 120.661 20.8225 120.249C21.7516 119.837 22.8108 119.631 24.0001 119.631C24.7806 119.631 25.496 119.706 26.1464 119.855C26.7968 119.986 27.4286 120.183 28.0418 120.445L27.1777 123.789C26.7875 123.639 26.3601 123.508 25.8955 123.395C25.431 123.283 24.9107 123.227 24.3346 123.227C23.1082 123.227 22.1883 123.611 21.5751 124.379C20.9804 125.147 20.6831 126.158 20.6831 127.413C20.6831 128.743 20.9619 129.773 21.5193 130.504C22.0954 131.234 23.0896 131.599 24.5019 131.599C25.0036 131.599 25.5425 131.553 26.1185 131.459C26.6946 131.365 27.2242 131.215 27.7074 131.009L28.2927 134.437C27.8096 134.643 27.2056 134.821 26.4809 134.971C25.7562 135.121 24.9571 135.196 24.0837 135.196C22.7458 135.196 21.5937 134.999 20.6274 134.606C19.6611 134.194 18.862 133.641 18.2302 132.948C17.617 132.255 17.1617 131.44 16.8644 130.504C16.5857 129.548 16.4463 128.518 16.4463 127.413Z" fill="#1F2665"/>
<path d="M31.0801 134.802V113.674L35.2333 113V120.08C35.5121 119.986 35.8651 119.902 36.2925 119.827C36.7385 119.734 37.1659 119.687 37.5747 119.687C38.764 119.687 39.7489 119.855 40.5294 120.193C41.3284 120.511 41.9602 120.97 42.4248 121.569C42.9079 122.169 43.2424 122.88 43.4282 123.704C43.6327 124.529 43.7349 125.446 43.7349 126.458V134.802H39.5816V126.964C39.5816 125.615 39.4051 124.66 39.052 124.098C38.7176 123.536 38.0857 123.255 37.1566 123.255C36.785 123.255 36.4319 123.292 36.0974 123.367C35.7815 123.424 35.4935 123.489 35.2333 123.564V134.802H31.0801Z" fill="#1F2665"/>
<path d="M61.2087 127.385C61.2087 128.546 61.0415 129.614 60.707 130.588C60.3725 131.543 59.8893 132.367 59.2575 133.06C58.6257 133.735 57.8638 134.259 56.9719 134.634C56.0985 135.008 55.1136 135.196 54.0172 135.196C52.9394 135.196 51.9545 135.008 51.0625 134.634C50.1891 134.259 49.4366 133.735 48.8048 133.06C48.173 132.367 47.6805 131.543 47.3274 130.588C46.9743 129.614 46.7979 128.546 46.7979 127.385C46.7979 126.224 46.9743 125.165 47.3274 124.21C47.699 123.255 48.2008 122.44 48.8326 121.766C49.483 121.092 50.245 120.567 51.1183 120.193C52.0103 119.818 52.9766 119.631 54.0172 119.631C55.0764 119.631 56.0426 119.818 56.916 120.193C57.808 120.567 58.57 121.092 59.2018 121.766C59.8336 122.44 60.326 123.255 60.6791 124.21C61.0322 125.165 61.2087 126.224 61.2087 127.385ZM56.9719 127.385C56.9719 126.093 56.7117 125.081 56.1914 124.351C55.6897 123.601 54.965 123.227 54.0172 123.227C53.0695 123.227 52.3355 123.601 51.8152 124.351C51.2949 125.081 51.0347 126.093 51.0347 127.385C51.0347 128.677 51.2949 129.708 51.8152 130.476C52.3355 131.225 53.0695 131.599 54.0172 131.599C54.965 131.599 55.6897 131.225 56.1914 130.476C56.7117 129.708 56.9719 128.677 56.9719 127.385Z" fill="#1F2665"/>
<path d="M78.1393 127.385C78.1393 128.546 77.9721 129.614 77.6376 130.588C77.3031 131.543 76.82 132.367 76.1882 133.06C75.5564 133.735 74.7945 134.259 73.9025 134.634C73.0291 135.008 72.0442 135.196 70.9479 135.196C69.8701 135.196 68.8852 135.008 67.9932 134.634C67.1199 134.259 66.3673 133.735 65.7354 133.06C65.1036 132.367 64.6112 131.543 64.2581 130.588C63.9051 129.614 63.7285 128.546 63.7285 127.385C63.7285 126.224 63.9051 125.165 64.2581 124.21C64.6298 123.255 65.1315 122.44 65.7633 121.766C66.4137 121.092 67.1756 120.567 68.049 120.193C68.9409 119.818 69.9072 119.631 70.9479 119.631C72.0071 119.631 72.9734 119.818 73.8468 120.193C74.7387 120.567 75.5006 121.092 76.1324 121.766C76.7642 122.44 77.2567 123.255 77.6097 124.21C77.9628 125.165 78.1393 126.224 78.1393 127.385ZM73.9025 127.385C73.9025 126.093 73.6424 125.081 73.122 124.351C72.6203 123.601 71.8956 123.227 70.9479 123.227C70.0002 123.227 69.2661 123.601 68.7458 124.351C68.2255 125.081 67.9654 126.093 67.9654 127.385C67.9654 128.677 68.2255 129.708 68.7458 130.476C69.2661 131.225 70.0002 131.599 70.9479 131.599C71.8956 131.599 72.6203 131.225 73.122 130.476C73.6424 129.708 73.9025 128.677 73.9025 127.385Z" fill="#1F2665"/>
<path d="M95.071 127.385C95.071 128.546 94.9037 129.614 94.5692 130.588C94.2348 131.543 93.7516 132.367 93.1198 133.06C92.488 133.735 91.7261 134.259 90.8341 134.634C89.9608 135.008 88.9759 135.196 87.8795 135.196C86.8017 135.196 85.8168 135.008 84.9249 134.634C84.0515 134.259 83.2989 133.735 82.6671 133.06C82.0353 132.367 81.5428 131.543 81.1898 130.588C80.8367 129.614 80.6602 128.546 80.6602 127.385C80.6602 126.224 80.8367 125.165 81.1898 124.21C81.5614 123.255 82.0631 122.44 82.695 121.766C83.3453 121.092 84.1072 120.567 84.9806 120.193C85.8726 119.818 86.8389 119.631 87.8795 119.631C88.9387 119.631 89.905 119.818 90.7784 120.193C91.6704 120.567 92.4321 121.092 93.0639 121.766C93.6958 122.44 94.1883 123.255 94.5414 124.21C94.8944 125.165 95.071 126.224 95.071 127.385ZM90.8341 127.385C90.8341 126.093 90.5739 125.081 90.0536 124.351C89.5518 123.601 88.8272 123.227 87.8795 123.227C86.9318 123.227 86.1978 123.601 85.6775 124.351C85.1571 125.081 84.8969 126.093 84.8969 127.385C84.8969 128.677 85.1571 129.708 85.6775 130.476C86.1978 131.225 86.9318 131.599 87.8795 131.599C88.8272 131.599 89.5518 131.225 90.0536 130.476C90.5739 129.708 90.8341 128.677 90.8341 127.385Z" fill="#1F2665"/>
<path d="M104.142 135.083C102.934 135.065 101.949 134.933 101.187 134.69C100.444 134.446 99.8491 134.109 99.4031 133.678C98.9757 133.229 98.6784 132.695 98.5111 132.077C98.3625 131.44 98.2881 130.728 98.2881 129.942V113.674L102.441 113V129.099C102.441 129.473 102.469 129.811 102.525 130.11C102.581 130.41 102.683 130.663 102.831 130.869C102.999 131.075 103.231 131.243 103.528 131.375C103.826 131.506 104.225 131.59 104.727 131.627L104.142 135.083Z" fill="#1F2665"/>
<path d="M110.648 127.301C110.648 128.593 110.936 129.633 111.512 130.419C112.088 131.206 112.942 131.599 114.076 131.599C114.448 131.599 114.791 131.59 115.107 131.571C115.423 131.534 115.683 131.496 115.888 131.459V123.845C115.628 123.676 115.284 123.536 114.856 123.424C114.448 123.311 114.03 123.255 113.602 123.255C111.632 123.255 110.648 124.604 110.648 127.301ZM120.041 134.325C119.669 134.437 119.242 134.549 118.759 134.662C118.276 134.755 117.765 134.84 117.226 134.915C116.705 134.99 116.167 135.046 115.609 135.083C115.07 135.139 114.55 135.168 114.048 135.168C112.84 135.168 111.762 134.99 110.815 134.634C109.867 134.278 109.068 133.772 108.418 133.117C107.767 132.442 107.265 131.637 106.912 130.7C106.578 129.745 106.411 128.677 106.411 127.497C106.411 126.299 106.559 125.222 106.857 124.266C107.154 123.292 107.581 122.468 108.139 121.794C108.696 121.12 109.375 120.605 110.174 120.249C110.991 119.893 111.92 119.715 112.961 119.715C113.537 119.715 114.048 119.771 114.494 119.883C114.959 119.996 115.423 120.155 115.888 120.361V113.674L120.041 113V134.325Z" fill="#1F2665"/>
<path d="M129.533 131.88C129.941 131.88 130.332 131.871 130.703 131.852C131.075 131.834 131.372 131.805 131.595 131.768V128.593C131.428 128.556 131.177 128.518 130.843 128.481C130.508 128.443 130.202 128.425 129.923 128.425C129.533 128.425 129.161 128.453 128.808 128.509C128.473 128.546 128.176 128.631 127.916 128.762C127.656 128.893 127.451 129.071 127.303 129.296C127.154 129.52 127.08 129.801 127.08 130.138C127.08 130.794 127.293 131.253 127.721 131.515C128.167 131.759 128.771 131.88 129.533 131.88ZM129.198 119.631C130.424 119.631 131.447 119.771 132.264 120.052C133.082 120.333 133.732 120.736 134.215 121.26C134.717 121.785 135.07 122.421 135.275 123.171C135.479 123.92 135.581 124.753 135.581 125.671V134.381C134.987 134.512 134.16 134.662 133.1 134.83C132.041 135.018 130.759 135.111 129.254 135.111C128.306 135.111 127.442 135.027 126.662 134.858C125.9 134.69 125.24 134.418 124.682 134.044C124.125 133.65 123.698 133.145 123.4 132.527C123.103 131.908 122.954 131.15 122.954 130.251C122.954 129.389 123.122 128.659 123.456 128.059C123.809 127.46 124.274 126.982 124.85 126.626C125.426 126.271 126.085 126.018 126.829 125.868C127.572 125.699 128.343 125.615 129.142 125.615C129.681 125.615 130.155 125.643 130.564 125.699C130.991 125.737 131.335 125.793 131.595 125.868V125.475C131.595 124.763 131.381 124.191 130.954 123.761C130.527 123.33 129.783 123.114 128.724 123.114C128.018 123.114 127.321 123.171 126.634 123.283C125.946 123.377 125.351 123.517 124.85 123.704L124.32 120.333C124.562 120.258 124.859 120.183 125.212 120.108C125.584 120.015 125.983 119.94 126.411 119.883C126.838 119.809 127.284 119.752 127.749 119.715C128.232 119.659 128.715 119.631 129.198 119.631Z" fill="#1F2665"/>
<path d="M152 120.024C151.164 122.871 150.29 125.54 149.38 128.031C148.469 130.522 147.475 132.939 146.397 135.28C146.007 136.123 145.617 136.835 145.227 137.415C144.836 138.015 144.409 138.502 143.944 138.876C143.48 139.27 142.95 139.55 142.356 139.719C141.78 139.906 141.101 140 140.321 140C139.67 140 139.067 139.934 138.509 139.803C137.97 139.691 137.524 139.56 137.171 139.41L137.896 136.067C138.323 136.216 138.704 136.319 139.039 136.376C139.373 136.432 139.726 136.46 140.098 136.46C140.841 136.46 141.408 136.254 141.798 135.842C142.207 135.448 142.551 134.896 142.829 134.184C141.882 132.311 140.934 130.213 139.986 127.891C139.039 125.549 138.147 122.927 137.31 120.024H141.715C141.9 120.754 142.114 121.55 142.356 122.412C142.616 123.255 142.885 124.117 143.164 124.997C143.443 125.858 143.721 126.701 144 127.525C144.298 128.35 144.576 129.099 144.836 129.773C145.078 129.099 145.329 128.35 145.589 127.525C145.849 126.701 146.1 125.858 146.342 124.997C146.602 124.117 146.843 123.255 147.066 122.412C147.308 121.55 147.522 120.754 147.707 120.024H152Z" fill="#1F2665"/>
</svg>
