<svg width="152" height="140" viewBox="0 0 152 140" fill="none" xmlns="http://www.w3.org/2000/svg">
<path fill-rule="evenodd" clip-rule="evenodd" d="M76.8938 96.2924C103.044 91.4752 125.04 74.7366 125.04 48.1462C125.04 21.5558 103.484 0 76.8938 0C50.3034 0 28.7476 21.5558 28.7476 48.1462C28.7476 55.5284 33.2521 64.329 37.4408 72.5126C43.4388 84.231 48.7893 94.6844 39.3397 97.8973C46.3484 101.88 64.6967 98.5392 76.8938 96.2924ZM78.9135 65.6267C77.9191 65.8635 76.6405 65.9818 75.0778 65.9818C71.9524 65.9818 69.3006 65.674 67.1223 65.0584C64.9913 64.3955 63.1919 63.6615 61.7239 62.8565L58.5985 71.6644C59.2614 72.0432 60.0665 72.4457 61.0135 72.8719C62.008 73.2981 63.1682 73.7006 64.4941 74.0795C65.8674 74.4583 67.4301 74.7661 69.1822 75.0029C70.9343 75.287 72.8995 75.4291 75.0778 75.4291C81.5654 75.4291 86.4192 74.1742 89.6393 71.6644C92.8594 69.1072 94.4695 65.532 94.4695 60.9386C94.4695 58.5709 94.1617 56.5583 93.5461 54.9009C92.9305 53.2435 91.9834 51.7992 90.7048 50.568C89.4736 49.3367 87.9109 48.2713 86.0167 47.3715C84.1225 46.4244 81.8969 45.4774 79.3397 44.5303C78.1085 44.1041 76.972 43.7016 75.9302 43.3227C74.9358 42.8965 74.036 42.4467 73.231 41.9731C72.4733 41.4522 71.8814 40.884 71.4552 40.2684C71.029 39.6528 70.8159 38.8951 70.8159 37.9953C70.8159 36.48 71.3842 35.3672 72.5207 34.6569C73.7046 33.8992 75.6224 33.5203 78.2743 33.5203C80.642 33.5203 82.6545 33.8045 84.312 34.3727C86.0167 34.8936 87.5557 35.5092 88.929 36.2196L92.1254 27.4827C90.5627 26.6303 88.5739 25.8489 86.1588 25.1386C83.7437 24.4283 80.8788 24.0731 77.5639 24.0731C74.77 24.0731 72.2602 24.4283 70.0346 25.1386C67.8089 25.8016 65.9147 26.7723 64.352 28.0509C62.7893 29.3295 61.5818 30.8922 60.7294 32.739C59.877 34.5385 59.4508 36.5747 59.4508 38.8477C59.4508 41.1207 59.8534 43.0623 60.6584 44.6723C61.4634 46.235 62.5052 47.5846 63.7838 48.7211C65.0624 49.8103 66.5067 50.7337 68.1167 51.4914C69.7268 52.2017 71.3368 52.841 72.9469 53.4092C76.6405 54.6404 79.245 55.8006 80.7604 56.8898C82.2757 57.9316 83.0334 59.2575 83.0334 60.8676C83.0334 61.6252 82.915 62.3119 82.6782 62.9275C82.4415 63.5431 82.0153 64.0877 81.3997 64.5612C80.784 64.9874 79.9553 65.3426 78.9135 65.6267Z" fill="white"/>
<path d="M6.46675 131.459C7.07998 131.459 7.58171 131.412 7.97194 131.318C8.38076 131.206 8.70596 131.066 8.94753 130.897C9.1891 130.71 9.35635 130.494 9.44926 130.251C9.54217 130.007 9.58863 129.736 9.58863 129.436C9.58863 128.799 9.29131 128.275 8.69667 127.863C8.10202 127.432 7.07998 126.973 5.63053 126.486C4.99872 126.261 4.36692 126.008 3.73511 125.727C3.1033 125.428 2.53653 125.062 2.0348 124.632C1.53307 124.182 1.12425 123.648 0.808344 123.03C0.492439 122.393 0.334487 121.625 0.334487 120.726C0.334487 119.827 0.501731 119.022 0.836218 118.31C1.1707 117.58 1.64456 116.961 2.25779 116.456C2.87101 115.95 3.61432 115.566 4.4877 115.304C5.36109 115.023 6.34596 114.882 7.44234 114.882C8.74312 114.882 9.86737 115.023 10.8151 115.304C11.7628 115.585 12.5433 115.894 13.1565 116.231L11.9022 119.687C11.3633 119.406 10.7593 119.162 10.0904 118.956C9.43997 118.732 8.65021 118.619 7.72108 118.619C6.68045 118.619 5.92786 118.769 5.46329 119.069C5.01731 119.35 4.79432 119.79 4.79432 120.389C4.79432 120.745 4.87794 121.045 5.04518 121.288C5.21242 121.532 5.44471 121.757 5.74203 121.963C6.05793 122.15 6.411 122.328 6.80124 122.496C7.21006 122.646 7.65604 122.805 8.13919 122.974C9.14265 123.349 10.016 123.723 10.7593 124.098C11.5026 124.454 12.1159 124.875 12.599 125.362C13.1007 125.849 13.4724 126.42 13.714 127.076C13.9555 127.732 14.0763 128.528 14.0763 129.464C14.0763 131.281 13.4445 132.695 12.1809 133.707C10.9173 134.699 9.01257 135.196 6.46675 135.196C5.61195 135.196 4.84077 135.139 4.15322 135.027C3.46566 134.933 2.85243 134.812 2.31354 134.662C1.79322 134.512 1.33795 134.353 0.947714 134.184C0.576061 134.016 0.260157 133.856 0 133.707L1.22645 130.223C1.80251 130.541 2.50865 130.831 3.34487 131.094C4.19967 131.337 5.2403 131.459 6.46675 131.459Z" fill="white"/>
<path d="M16.4465 127.413C16.4465 126.345 16.6137 125.343 16.9482 124.407C17.3013 123.452 17.803 122.627 18.4534 121.934C19.1038 121.223 19.8936 120.661 20.8227 120.249C21.7518 119.837 22.811 119.631 24.0003 119.631C24.7808 119.631 25.4962 119.706 26.1466 119.855C26.797 119.986 27.4288 120.183 28.042 120.445L27.1779 123.789C26.7877 123.639 26.3603 123.508 25.8957 123.395C25.4312 123.283 24.9109 123.227 24.3348 123.227C23.1084 123.227 22.1885 123.611 21.5753 124.379C20.9806 125.147 20.6833 126.158 20.6833 127.413C20.6833 128.743 20.9621 129.773 21.5195 130.504C22.0956 131.234 23.0898 131.599 24.5021 131.599C25.0038 131.599 25.5427 131.553 26.1187 131.459C26.6948 131.365 27.2244 131.215 27.7076 131.009L28.2929 134.437C27.8098 134.643 27.2058 134.821 26.4811 134.971C25.7564 135.121 24.9573 135.196 24.0839 135.196C22.746 135.196 21.5939 134.999 20.6276 134.606C19.6613 134.194 18.8622 133.641 18.2304 132.948C17.6172 132.255 17.1619 131.44 16.8646 130.504C16.5859 129.548 16.4465 128.518 16.4465 127.413Z" fill="white"/>
<path d="M31.0803 134.802V113.674L35.2335 113V120.08C35.5123 119.986 35.8653 119.902 36.2927 119.827C36.7387 119.734 37.1661 119.687 37.5749 119.687C38.7642 119.687 39.7491 119.855 40.5296 120.193C41.3286 120.511 41.9604 120.97 42.425 121.569C42.9081 122.169 43.2426 122.88 43.4284 123.704C43.6329 124.529 43.7351 125.446 43.7351 126.458V134.802H39.5818V126.964C39.5818 125.615 39.4053 124.66 39.0522 124.098C38.7178 123.536 38.0859 123.255 37.1568 123.255C36.7852 123.255 36.4321 123.292 36.0976 123.367C35.7817 123.424 35.4937 123.489 35.2335 123.564V134.802H31.0803Z" fill="white"/>
<path d="M61.2083 127.385C61.2083 128.546 61.0411 129.614 60.7066 130.588C60.3721 131.543 59.8889 132.367 59.2571 133.06C58.6253 133.735 57.8634 134.259 56.9715 134.634C56.0981 135.008 55.1132 135.196 54.0168 135.196C52.939 135.196 51.9542 135.008 51.0622 134.634C50.1888 134.259 49.4362 133.735 48.8044 133.06C48.1726 132.367 47.6802 131.543 47.3271 130.588C46.974 129.614 46.7975 128.546 46.7975 127.385C46.7975 126.224 46.974 125.165 47.3271 124.21C47.6987 123.255 48.2005 122.44 48.8323 121.766C49.4827 121.092 50.2446 120.567 51.1179 120.193C52.0099 119.818 52.9762 119.631 54.0168 119.631C55.076 119.631 56.0423 119.818 56.9157 120.193C57.8077 120.567 58.5696 121.092 59.2014 121.766C59.8332 122.44 60.3256 123.255 60.6787 124.21C61.0318 125.165 61.2083 126.224 61.2083 127.385ZM56.9715 127.385C56.9715 126.093 56.7113 125.081 56.191 124.351C55.6893 123.601 54.9646 123.227 54.0168 123.227C53.0691 123.227 52.3351 123.601 51.8148 124.351C51.2945 125.081 51.0343 126.093 51.0343 127.385C51.0343 128.677 51.2945 129.708 51.8148 130.476C52.3351 131.225 53.0691 131.599 54.0168 131.599C54.9646 131.599 55.6893 131.225 56.191 130.476C56.7113 129.708 56.9715 128.677 56.9715 127.385Z" fill="white"/>
<path d="M78.1395 127.385C78.1395 128.546 77.9723 129.614 77.6378 130.588C77.3033 131.543 76.8202 132.367 76.1884 133.06C75.5566 133.735 74.7947 134.259 73.9027 134.634C73.0293 135.008 72.0444 135.196 70.9481 135.196C69.8703 135.196 68.8854 135.008 67.9934 134.634C67.1201 134.259 66.3675 133.735 65.7356 133.06C65.1038 132.367 64.6114 131.543 64.2583 130.588C63.9053 129.614 63.7287 128.546 63.7287 127.385C63.7287 126.224 63.9053 125.165 64.2583 124.21C64.63 123.255 65.1317 122.44 65.7635 121.766C66.4139 121.092 67.1758 120.567 68.0492 120.193C68.9411 119.818 69.9074 119.631 70.9481 119.631C72.0073 119.631 72.9736 119.818 73.847 120.193C74.7389 120.567 75.5008 121.092 76.1326 121.766C76.7644 122.44 77.2569 123.255 77.6099 124.21C77.963 125.165 78.1395 126.224 78.1395 127.385ZM73.9027 127.385C73.9027 126.093 73.6426 125.081 73.1222 124.351C72.6205 123.601 71.8958 123.227 70.9481 123.227C70.0004 123.227 69.2663 123.601 68.746 124.351C68.2257 125.081 67.9656 126.093 67.9656 127.385C67.9656 128.677 68.2257 129.708 68.746 130.476C69.2663 131.225 70.0004 131.599 70.9481 131.599C71.8958 131.599 72.6205 131.225 73.1222 130.476C73.6426 129.708 73.9027 128.677 73.9027 127.385Z" fill="white"/>
<path d="M95.0708 127.385C95.0708 128.546 94.9035 129.614 94.569 130.588C94.2346 131.543 93.7514 132.367 93.1196 133.06C92.4878 133.735 91.7259 134.259 90.8339 134.634C89.9606 135.008 88.9757 135.196 87.8793 135.196C86.8015 135.196 85.8166 135.008 84.9247 134.634C84.0513 134.259 83.2987 133.735 82.6669 133.06C82.0351 132.367 81.5426 131.543 81.1896 130.588C80.8365 129.614 80.66 128.546 80.66 127.385C80.66 126.224 80.8365 125.165 81.1896 124.21C81.5612 123.255 82.0629 122.44 82.6948 121.766C83.3451 121.092 84.107 120.567 84.9804 120.193C85.8724 119.818 86.8387 119.631 87.8793 119.631C88.9385 119.631 89.9048 119.818 90.7782 120.193C91.6702 120.567 92.432 121.092 93.0638 121.766C93.6957 122.44 94.1881 123.255 94.5412 124.21C94.8942 125.165 95.0708 126.224 95.0708 127.385ZM90.8339 127.385C90.8339 126.093 90.5738 125.081 90.0535 124.351C89.5517 123.601 88.827 123.227 87.8793 123.227C86.9316 123.227 86.1976 123.601 85.6773 124.351C85.1569 125.081 84.8968 126.093 84.8968 127.385C84.8968 128.677 85.1569 129.708 85.6773 130.476C86.1976 131.225 86.9316 131.599 87.8793 131.599C88.827 131.599 89.5517 131.225 90.0535 130.476C90.5738 129.708 90.8339 128.677 90.8339 127.385Z" fill="white"/>
<path d="M104.142 135.083C102.934 135.065 101.949 134.933 101.187 134.69C100.444 134.446 99.849 134.109 99.403 133.678C98.9756 133.229 98.6783 132.695 98.511 132.077C98.3624 131.44 98.288 130.728 98.288 129.942V113.674L102.441 113V129.099C102.441 129.473 102.469 129.811 102.525 130.11C102.581 130.41 102.683 130.663 102.831 130.869C102.999 131.075 103.231 131.243 103.528 131.375C103.826 131.506 104.225 131.59 104.727 131.627L104.142 135.083Z" fill="white"/>
<path d="M110.648 127.301C110.648 128.593 110.936 129.633 111.512 130.419C112.088 131.206 112.942 131.599 114.076 131.599C114.448 131.599 114.791 131.59 115.107 131.571C115.423 131.534 115.683 131.496 115.888 131.459V123.845C115.628 123.676 115.284 123.536 114.856 123.424C114.448 123.311 114.03 123.255 113.602 123.255C111.632 123.255 110.648 124.604 110.648 127.301ZM120.041 134.325C119.669 134.437 119.242 134.549 118.759 134.662C118.276 134.755 117.765 134.84 117.226 134.915C116.705 134.99 116.167 135.046 115.609 135.083C115.07 135.139 114.55 135.168 114.048 135.168C112.84 135.168 111.762 134.99 110.815 134.634C109.867 134.278 109.068 133.772 108.418 133.117C107.767 132.442 107.265 131.637 106.912 130.7C106.578 129.745 106.411 128.677 106.411 127.497C106.411 126.299 106.559 125.222 106.857 124.266C107.154 123.292 107.581 122.468 108.139 121.794C108.696 121.12 109.375 120.605 110.174 120.249C110.991 119.893 111.92 119.715 112.961 119.715C113.537 119.715 114.048 119.771 114.494 119.883C114.959 119.996 115.423 120.155 115.888 120.361V113.674L120.041 113V134.325Z" fill="white"/>
<path d="M129.533 131.88C129.941 131.88 130.332 131.871 130.703 131.852C131.075 131.834 131.372 131.805 131.595 131.768V128.593C131.428 128.556 131.177 128.518 130.843 128.481C130.508 128.443 130.202 128.425 129.923 128.425C129.533 128.425 129.161 128.453 128.808 128.509C128.473 128.546 128.176 128.631 127.916 128.762C127.656 128.893 127.451 129.071 127.303 129.296C127.154 129.52 127.08 129.801 127.08 130.138C127.08 130.794 127.293 131.253 127.721 131.515C128.167 131.759 128.771 131.88 129.533 131.88ZM129.198 119.631C130.424 119.631 131.447 119.771 132.264 120.052C133.082 120.333 133.732 120.736 134.215 121.26C134.717 121.785 135.07 122.421 135.275 123.171C135.479 123.92 135.581 124.753 135.581 125.671V134.381C134.987 134.512 134.16 134.662 133.1 134.83C132.041 135.018 130.759 135.111 129.254 135.111C128.306 135.111 127.442 135.027 126.662 134.858C125.9 134.69 125.24 134.418 124.682 134.044C124.125 133.65 123.698 133.145 123.4 132.527C123.103 131.908 122.954 131.15 122.954 130.251C122.954 129.389 123.122 128.659 123.456 128.059C123.809 127.46 124.274 126.982 124.85 126.626C125.426 126.271 126.085 126.018 126.829 125.868C127.572 125.699 128.343 125.615 129.142 125.615C129.681 125.615 130.155 125.643 130.564 125.699C130.991 125.737 131.335 125.793 131.595 125.868V125.475C131.595 124.763 131.381 124.191 130.954 123.761C130.527 123.33 129.783 123.114 128.724 123.114C128.018 123.114 127.321 123.171 126.634 123.283C125.946 123.377 125.351 123.517 124.85 123.704L124.32 120.333C124.562 120.258 124.859 120.183 125.212 120.108C125.584 120.015 125.983 119.94 126.411 119.883C126.838 119.809 127.284 119.752 127.749 119.715C128.232 119.659 128.715 119.631 129.198 119.631Z" fill="white"/>
<path d="M152 120.024C151.164 122.871 150.29 125.54 149.38 128.031C148.469 130.522 147.475 132.939 146.397 135.28C146.007 136.123 145.617 136.835 145.227 137.415C144.836 138.015 144.409 138.502 143.944 138.876C143.48 139.27 142.95 139.55 142.356 139.719C141.78 139.906 141.101 140 140.321 140C139.67 140 139.067 139.934 138.509 139.803C137.97 139.691 137.524 139.56 137.171 139.41L137.896 136.067C138.323 136.216 138.704 136.319 139.039 136.376C139.373 136.432 139.726 136.46 140.098 136.46C140.841 136.46 141.408 136.254 141.798 135.842C142.207 135.448 142.551 134.896 142.829 134.184C141.882 132.311 140.934 130.213 139.986 127.891C139.039 125.549 138.147 122.927 137.31 120.024H141.715C141.9 120.754 142.114 121.55 142.356 122.412C142.616 123.255 142.885 124.117 143.164 124.997C143.443 125.858 143.721 126.701 144 127.525C144.298 128.35 144.576 129.099 144.836 129.773C145.078 129.099 145.329 128.35 145.589 127.525C145.849 126.701 146.1 125.858 146.342 124.997C146.602 124.117 146.843 123.255 147.066 122.412C147.308 121.55 147.522 120.754 147.707 120.024H152Z" fill="white"/>
</svg>
